<?xml version="1.0" encoding="UTF-8" standalone="no"?>
<!DOCTYPE svg PUBLIC "-//W3C//DTD SVG 1.1//EN"
 "http://www.w3.org/Graphics/SVG/1.1/DTD/svg11.dtd">
<!-- Generated by graphviz version 2.43.0 (0)
 -->
<!-- Title: controllers_diagram Pages: 1 -->
<svg width="953pt" height="1056pt"
 viewBox="0.00 0.00 953.00 1056.00" xmlns="http://www.w3.org/2000/svg" xmlns:xlink="http://www.w3.org/1999/xlink">
<g id="graph0" class="graph" transform="scale(1 1) rotate(0) translate(4 1052)">
<title>controllers_diagram</title>
<polygon fill="transparent" stroke="transparent" points="-4,4 -4,-1052 949,-1052 949,4 -4,4"/>
<!-- _diagram_info -->
<g id="node1" class="node">
<title>_diagram_info</title>
<text text-anchor="start" x="512" y="-210.6" font-family="Times,serif" font-size="13.00">Controllers diagram</text>
<text text-anchor="start" x="512" y="-196.6" font-family="Times,serif" font-size="13.00">Date: May 17 2022 &#45; 17:05</text>
<text text-anchor="start" x="512" y="-182.6" font-family="Times,serif" font-size="13.00">Migration version: 20220503161238</text>
<text text-anchor="start" x="512" y="-168.6" font-family="Times,serif" font-size="13.00">Generated by RailRoady 1.6.0</text>
<text text-anchor="start" x="512" y="-154.6" font-family="Times,serif" font-size="13.00">http://railroady.prestonlee.com</text>
</g>
<!-- AnimalTypesController -->
<g id="node2" class="node">
<title>AnimalTypesController</title>
<path fill="none" stroke="black" d="M579,-546.5C579,-546.5 736,-546.5 736,-546.5 742,-546.5 748,-552.5 748,-558.5 748,-558.5 748,-762.5 748,-762.5 748,-768.5 742,-774.5 736,-774.5 736,-774.5 579,-774.5 579,-774.5 573,-774.5 567,-768.5 567,-762.5 567,-762.5 567,-558.5 567,-558.5 567,-552.5 573,-546.5 579,-546.5"/>
<text text-anchor="middle" x="657.5" y="-759.3" font-family="Times,serif" font-size="14.00">AnimalTypesController</text>
<polyline fill="none" stroke="black" points="567,-751.5 748,-751.5 "/>
<text text-anchor="start" x="575" y="-736.3" font-family="Times,serif" font-size="14.00">create</text>
<text text-anchor="start" x="575" y="-721.3" font-family="Times,serif" font-size="14.00">destroy</text>
<text text-anchor="start" x="575" y="-706.3" font-family="Times,serif" font-size="14.00">edit</text>
<text text-anchor="start" x="575" y="-691.3" font-family="Times,serif" font-size="14.00">index</text>
<text text-anchor="start" x="575" y="-676.3" font-family="Times,serif" font-size="14.00">new</text>
<text text-anchor="start" x="575" y="-661.3" font-family="Times,serif" font-size="14.00">show</text>
<text text-anchor="start" x="575" y="-646.3" font-family="Times,serif" font-size="14.00">update</text>
<polyline fill="none" stroke="black" points="567,-638.5 748,-638.5 "/>
<polyline fill="none" stroke="black" points="567,-614.5 748,-614.5 "/>
<text text-anchor="start" x="575" y="-599.3" font-family="Times,serif" font-size="14.00">_layout</text>
<text text-anchor="start" x="575" y="-584.3" font-family="Times,serif" font-size="14.00">_layout_from_proc</text>
<text text-anchor="start" x="575" y="-569.3" font-family="Times,serif" font-size="14.00">animal_type_params</text>
<text text-anchor="start" x="575" y="-554.3" font-family="Times,serif" font-size="14.00">set_animal_type</text>
</g>
<!-- AnimalsController -->
<g id="node3" class="node">
<title>AnimalsController</title>
<path fill="none" stroke="black" d="M810,-42.5C810,-42.5 932,-42.5 932,-42.5 938,-42.5 944,-48.5 944,-54.5 944,-54.5 944,-258.5 944,-258.5 944,-264.5 938,-270.5 932,-270.5 932,-270.5 810,-270.5 810,-270.5 804,-270.5 798,-264.5 798,-258.5 798,-258.5 798,-54.5 798,-54.5 798,-48.5 804,-42.5 810,-42.5"/>
<text text-anchor="middle" x="871" y="-255.3" font-family="Times,serif" font-size="14.00">AnimalsController</text>
<polyline fill="none" stroke="black" points="798,-247.5 944,-247.5 "/>
<text text-anchor="start" x="806" y="-232.3" font-family="Times,serif" font-size="14.00">create</text>
<text text-anchor="start" x="806" y="-217.3" font-family="Times,serif" font-size="14.00">destroy</text>
<text text-anchor="start" x="806" y="-202.3" font-family="Times,serif" font-size="14.00">edit</text>
<text text-anchor="start" x="806" y="-187.3" font-family="Times,serif" font-size="14.00">index</text>
<text text-anchor="start" x="806" y="-172.3" font-family="Times,serif" font-size="14.00">new</text>
<text text-anchor="start" x="806" y="-157.3" font-family="Times,serif" font-size="14.00">show</text>
<text text-anchor="start" x="806" y="-142.3" font-family="Times,serif" font-size="14.00">update</text>
<polyline fill="none" stroke="black" points="798,-134.5 944,-134.5 "/>
<polyline fill="none" stroke="black" points="798,-110.5 944,-110.5 "/>
<text text-anchor="start" x="806" y="-95.3" font-family="Times,serif" font-size="14.00">_layout</text>
<text text-anchor="start" x="806" y="-80.3" font-family="Times,serif" font-size="14.00">_layout_from_proc</text>
<text text-anchor="start" x="806" y="-65.3" font-family="Times,serif" font-size="14.00">animal_params</text>
<text text-anchor="start" x="806" y="-50.3" font-family="Times,serif" font-size="14.00">set_animal</text>
</g>
<!-- ApplicationController -->
<g id="node4" class="node">
<title>ApplicationController</title>
<path fill="none" stroke="black" d="M516,-0.5C516,-0.5 662,-0.5 662,-0.5 668,-0.5 674,-6.5 674,-12.5 674,-12.5 674,-97.5 674,-97.5 674,-103.5 668,-109.5 662,-109.5 662,-109.5 516,-109.5 516,-109.5 510,-109.5 504,-103.5 504,-97.5 504,-97.5 504,-12.5 504,-12.5 504,-6.5 510,-0.5 516,-0.5"/>
<text text-anchor="middle" x="589" y="-94.3" font-family="Times,serif" font-size="14.00">ApplicationController</text>
<polyline fill="none" stroke="black" points="504,-86.5 674,-86.5 "/>
<polyline fill="none" stroke="black" points="504,-62.5 674,-62.5 "/>
<polyline fill="none" stroke="black" points="504,-38.5 674,-38.5 "/>
<text text-anchor="start" x="512" y="-23.3" font-family="Times,serif" font-size="14.00">_layout</text>
<text text-anchor="start" x="512" y="-8.3" font-family="Times,serif" font-size="14.00">_layout_from_proc</text>
</g>
<!-- ClassOfStudentsController -->
<g id="node5" class="node">
<title>ClassOfStudentsController</title>
<path fill="none" stroke="black" d="M327,-294.5C327,-294.5 512,-294.5 512,-294.5 518,-294.5 524,-300.5 524,-306.5 524,-306.5 524,-510.5 524,-510.5 524,-516.5 518,-522.5 512,-522.5 512,-522.5 327,-522.5 327,-522.5 321,-522.5 315,-516.5 315,-510.5 315,-510.5 315,-306.5 315,-306.5 315,-300.5 321,-294.5 327,-294.5"/>
<text text-anchor="middle" x="419.5" y="-507.3" font-family="Times,serif" font-size="14.00">ClassOfStudentsController</text>
<polyline fill="none" stroke="black" points="315,-499.5 524,-499.5 "/>
<text text-anchor="start" x="323" y="-484.3" font-family="Times,serif" font-size="14.00">create</text>
<text text-anchor="start" x="323" y="-469.3" font-family="Times,serif" font-size="14.00">destroy</text>
<text text-anchor="start" x="323" y="-454.3" font-family="Times,serif" font-size="14.00">edit</text>
<text text-anchor="start" x="323" y="-439.3" font-family="Times,serif" font-size="14.00">index</text>
<text text-anchor="start" x="323" y="-424.3" font-family="Times,serif" font-size="14.00">new</text>
<text text-anchor="start" x="323" y="-409.3" font-family="Times,serif" font-size="14.00">show</text>
<text text-anchor="start" x="323" y="-394.3" font-family="Times,serif" font-size="14.00">update</text>
<polyline fill="none" stroke="black" points="315,-386.5 524,-386.5 "/>
<polyline fill="none" stroke="black" points="315,-362.5 524,-362.5 "/>
<text text-anchor="start" x="323" y="-347.3" font-family="Times,serif" font-size="14.00">_layout</text>
<text text-anchor="start" x="323" y="-332.3" font-family="Times,serif" font-size="14.00">_layout_from_proc</text>
<text text-anchor="start" x="323" y="-317.3" font-family="Times,serif" font-size="14.00">class_of_student_params</text>
<text text-anchor="start" x="323" y="-302.3" font-family="Times,serif" font-size="14.00">set_class_of_student</text>
</g>
<!-- ClassroomsController -->
<g id="node6" class="node">
<title>ClassroomsController</title>
<path fill="none" stroke="black" d="M369,-567.5C369,-567.5 517,-567.5 517,-567.5 523,-567.5 529,-573.5 529,-579.5 529,-579.5 529,-783.5 529,-783.5 529,-789.5 523,-795.5 517,-795.5 517,-795.5 369,-795.5 369,-795.5 363,-795.5 357,-789.5 357,-783.5 357,-783.5 357,-579.5 357,-579.5 357,-573.5 363,-567.5 369,-567.5"/>
<text text-anchor="middle" x="443" y="-780.3" font-family="Times,serif" font-size="14.00">ClassroomsController</text>
<polyline fill="none" stroke="black" points="357,-772.5 529,-772.5 "/>
<text text-anchor="start" x="365" y="-757.3" font-family="Times,serif" font-size="14.00">create</text>
<text text-anchor="start" x="365" y="-742.3" font-family="Times,serif" font-size="14.00">destroy</text>
<text text-anchor="start" x="365" y="-727.3" font-family="Times,serif" font-size="14.00">edit</text>
<text text-anchor="start" x="365" y="-712.3" font-family="Times,serif" font-size="14.00">index</text>
<text text-anchor="start" x="365" y="-697.3" font-family="Times,serif" font-size="14.00">new</text>
<text text-anchor="start" x="365" y="-682.3" font-family="Times,serif" font-size="14.00">show</text>
<text text-anchor="start" x="365" y="-667.3" font-family="Times,serif" font-size="14.00">update</text>
<polyline fill="none" stroke="black" points="357,-659.5 529,-659.5 "/>
<polyline fill="none" stroke="black" points="357,-635.5 529,-635.5 "/>
<text text-anchor="start" x="365" y="-620.3" font-family="Times,serif" font-size="14.00">_layout</text>
<text text-anchor="start" x="365" y="-605.3" font-family="Times,serif" font-size="14.00">_layout_from_proc</text>
<text text-anchor="start" x="365" y="-590.3" font-family="Times,serif" font-size="14.00">classroom_params</text>
<text text-anchor="start" x="365" y="-575.3" font-family="Times,serif" font-size="14.00">set_classroom</text>
</g>
<!-- CoursesController -->
<g id="node7" class="node">
<title>CoursesController</title>
<path fill="none" stroke="black" d="M810,-315.5C810,-315.5 933,-315.5 933,-315.5 939,-315.5 945,-321.5 945,-327.5 945,-327.5 945,-531.5 945,-531.5 945,-537.5 939,-543.5 933,-543.5 933,-543.5 810,-543.5 810,-543.5 804,-543.5 798,-537.5 798,-531.5 798,-531.5 798,-327.5 798,-327.5 798,-321.5 804,-315.5 810,-315.5"/>
<text text-anchor="middle" x="871.5" y="-528.3" font-family="Times,serif" font-size="14.00">CoursesController</text>
<polyline fill="none" stroke="black" points="798,-520.5 945,-520.5 "/>
<text text-anchor="start" x="806" y="-505.3" font-family="Times,serif" font-size="14.00">create</text>
<text text-anchor="start" x="806" y="-490.3" font-family="Times,serif" font-size="14.00">destroy</text>
<text text-anchor="start" x="806" y="-475.3" font-family="Times,serif" font-size="14.00">edit</text>
<text text-anchor="start" x="806" y="-460.3" font-family="Times,serif" font-size="14.00">index</text>
<text text-anchor="start" x="806" y="-445.3" font-family="Times,serif" font-size="14.00">new</text>
<text text-anchor="start" x="806" y="-430.3" font-family="Times,serif" font-size="14.00">show</text>
<text text-anchor="start" x="806" y="-415.3" font-family="Times,serif" font-size="14.00">update</text>
<polyline fill="none" stroke="black" points="798,-407.5 945,-407.5 "/>
<polyline fill="none" stroke="black" points="798,-383.5 945,-383.5 "/>
<text text-anchor="start" x="806" y="-368.3" font-family="Times,serif" font-size="14.00">_layout</text>
<text text-anchor="start" x="806" y="-353.3" font-family="Times,serif" font-size="14.00">_layout_from_proc</text>
<text text-anchor="start" x="806" y="-338.3" font-family="Times,serif" font-size="14.00">course_params</text>
<text text-anchor="start" x="806" y="-323.3" font-family="Times,serif" font-size="14.00">set_course</text>
</g>
<!-- LessonsController -->
<g id="node8" class="node">
<title>LessonsController</title>
<path fill="none" stroke="black" d="M810,-588.5C810,-588.5 932,-588.5 932,-588.5 938,-588.5 944,-594.5 944,-600.5 944,-600.5 944,-804.5 944,-804.5 944,-810.5 938,-816.5 932,-816.5 932,-816.5 810,-816.5 810,-816.5 804,-816.5 798,-810.5 798,-804.5 798,-804.5 798,-600.5 798,-600.5 798,-594.5 804,-588.5 810,-588.5"/>
<text text-anchor="middle" x="871" y="-801.3" font-family="Times,serif" font-size="14.00">LessonsController</text>
<polyline fill="none" stroke="black" points="798,-793.5 944,-793.5 "/>
<text text-anchor="start" x="806" y="-778.3" font-family="Times,serif" font-size="14.00">create</text>
<text text-anchor="start" x="806" y="-763.3" font-family="Times,serif" font-size="14.00">destroy</text>
<text text-anchor="start" x="806" y="-748.3" font-family="Times,serif" font-size="14.00">edit</text>
<text text-anchor="start" x="806" y="-733.3" font-family="Times,serif" font-size="14.00">index</text>
<text text-anchor="start" x="806" y="-718.3" font-family="Times,serif" font-size="14.00">new</text>
<text text-anchor="start" x="806" y="-703.3" font-family="Times,serif" font-size="14.00">show</text>
<text text-anchor="start" x="806" y="-688.3" font-family="Times,serif" font-size="14.00">update</text>
<polyline fill="none" stroke="black" points="798,-680.5 944,-680.5 "/>
<polyline fill="none" stroke="black" points="798,-656.5 944,-656.5 "/>
<text text-anchor="start" x="806" y="-641.3" font-family="Times,serif" font-size="14.00">_layout</text>
<text text-anchor="start" x="806" y="-626.3" font-family="Times,serif" font-size="14.00">_layout_from_proc</text>
<text text-anchor="start" x="806" y="-611.3" font-family="Times,serif" font-size="14.00">lesson_params</text>
<text text-anchor="start" x="806" y="-596.3" font-family="Times,serif" font-size="14.00">set_lesson</text>
</g>
<!-- PresencesController -->
<g id="node9" class="node">
<title>PresencesController</title>
<path fill="none" stroke="black" d="M159,-693.5C159,-693.5 297,-693.5 297,-693.5 303,-693.5 309,-699.5 309,-705.5 309,-705.5 309,-909.5 309,-909.5 309,-915.5 303,-921.5 297,-921.5 297,-921.5 159,-921.5 159,-921.5 153,-921.5 147,-915.5 147,-909.5 147,-909.5 147,-705.5 147,-705.5 147,-699.5 153,-693.5 159,-693.5"/>
<text text-anchor="middle" x="228" y="-906.3" font-family="Times,serif" font-size="14.00">PresencesController</text>
<polyline fill="none" stroke="black" points="147,-898.5 309,-898.5 "/>
<text text-anchor="start" x="155" y="-883.3" font-family="Times,serif" font-size="14.00">create</text>
<text text-anchor="start" x="155" y="-868.3" font-family="Times,serif" font-size="14.00">destroy</text>
<text text-anchor="start" x="155" y="-853.3" font-family="Times,serif" font-size="14.00">edit</text>
<text text-anchor="start" x="155" y="-838.3" font-family="Times,serif" font-size="14.00">index</text>
<text text-anchor="start" x="155" y="-823.3" font-family="Times,serif" font-size="14.00">new</text>
<text text-anchor="start" x="155" y="-808.3" font-family="Times,serif" font-size="14.00">show</text>
<text text-anchor="start" x="155" y="-793.3" font-family="Times,serif" font-size="14.00">update</text>
<polyline fill="none" stroke="black" points="147,-785.5 309,-785.5 "/>
<polyline fill="none" stroke="black" points="147,-761.5 309,-761.5 "/>
<text text-anchor="start" x="155" y="-746.3" font-family="Times,serif" font-size="14.00">_layout</text>
<text text-anchor="start" x="155" y="-731.3" font-family="Times,serif" font-size="14.00">_layout_from_proc</text>
<text text-anchor="start" x="155" y="-716.3" font-family="Times,serif" font-size="14.00">presence_params</text>
<text text-anchor="start" x="155" y="-701.3" font-family="Times,serif" font-size="14.00">set_presence</text>
</g>
<!-- SessionsController -->
<g id="node10" class="node">
<title>SessionsController</title>
<path fill="none" stroke="black" d="M432,-840.5C432,-840.5 560,-840.5 560,-840.5 566,-840.5 572,-846.5 572,-852.5 572,-852.5 572,-966.5 572,-966.5 572,-972.5 566,-978.5 560,-978.5 560,-978.5 432,-978.5 432,-978.5 426,-978.5 420,-972.5 420,-966.5 420,-966.5 420,-852.5 420,-852.5 420,-846.5 426,-840.5 432,-840.5"/>
<text text-anchor="middle" x="496" y="-963.3" font-family="Times,serif" font-size="14.00">SessionsController</text>
<polyline fill="none" stroke="black" points="420,-955.5 572,-955.5 "/>
<text text-anchor="start" x="428" y="-940.3" font-family="Times,serif" font-size="14.00">create</text>
<text text-anchor="start" x="428" y="-925.3" font-family="Times,serif" font-size="14.00">destroy</text>
<text text-anchor="start" x="428" y="-910.3" font-family="Times,serif" font-size="14.00">new</text>
<polyline fill="none" stroke="black" points="420,-902.5 572,-902.5 "/>
<polyline fill="none" stroke="black" points="420,-878.5 572,-878.5 "/>
<text text-anchor="start" x="428" y="-863.3" font-family="Times,serif" font-size="14.00">_layout</text>
<text text-anchor="start" x="428" y="-848.3" font-family="Times,serif" font-size="14.00">_layout_from_proc</text>
</g>
<!-- StaticController -->
<g id="node11" class="node">
<title>StaticController</title>
<path fill="none" stroke="black" d="M12,-0.5C12,-0.5 134,-0.5 134,-0.5 140,-0.5 146,-6.5 146,-12.5 146,-12.5 146,-96.5 146,-96.5 146,-102.5 140,-108.5 134,-108.5 134,-108.5 12,-108.5 12,-108.5 6,-108.5 0,-102.5 0,-96.5 0,-96.5 0,-12.5 0,-12.5 0,-6.5 6,-0.5 12,-0.5"/>
<text text-anchor="middle" x="73" y="-93.3" font-family="Times,serif" font-size="14.00">StaticController</text>
<polyline fill="none" stroke="black" points="0,-85.5 146,-85.5 "/>
<text text-anchor="start" x="8" y="-70.3" font-family="Times,serif" font-size="14.00">index</text>
<polyline fill="none" stroke="black" points="0,-62.5 146,-62.5 "/>
<polyline fill="none" stroke="black" points="0,-38.5 146,-38.5 "/>
<text text-anchor="start" x="8" y="-23.3" font-family="Times,serif" font-size="14.00">_layout</text>
<text text-anchor="start" x="8" y="-8.3" font-family="Times,serif" font-size="14.00">_layout_from_proc</text>
</g>
<!-- StudentGradesController -->
<g id="node12" class="node">
<title>StudentGradesController</title>
<path fill="none" stroke="black" d="M579,-273.5C579,-273.5 752,-273.5 752,-273.5 758,-273.5 764,-279.5 764,-285.5 764,-285.5 764,-489.5 764,-489.5 764,-495.5 758,-501.5 752,-501.5 752,-501.5 579,-501.5 579,-501.5 573,-501.5 567,-495.5 567,-489.5 567,-489.5 567,-285.5 567,-285.5 567,-279.5 573,-273.5 579,-273.5"/>
<text text-anchor="middle" x="665.5" y="-486.3" font-family="Times,serif" font-size="14.00">StudentGradesController</text>
<polyline fill="none" stroke="black" points="567,-478.5 764,-478.5 "/>
<text text-anchor="start" x="575" y="-463.3" font-family="Times,serif" font-size="14.00">create</text>
<text text-anchor="start" x="575" y="-448.3" font-family="Times,serif" font-size="14.00">destroy</text>
<text text-anchor="start" x="575" y="-433.3" font-family="Times,serif" font-size="14.00">edit</text>
<text text-anchor="start" x="575" y="-418.3" font-family="Times,serif" font-size="14.00">index</text>
<text text-anchor="start" x="575" y="-403.3" font-family="Times,serif" font-size="14.00">new</text>
<text text-anchor="start" x="575" y="-388.3" font-family="Times,serif" font-size="14.00">show</text>
<text text-anchor="start" x="575" y="-373.3" font-family="Times,serif" font-size="14.00">update</text>
<polyline fill="none" stroke="black" points="567,-365.5 764,-365.5 "/>
<polyline fill="none" stroke="black" points="567,-341.5 764,-341.5 "/>
<text text-anchor="start" x="575" y="-326.3" font-family="Times,serif" font-size="14.00">_layout</text>
<text text-anchor="start" x="575" y="-311.3" font-family="Times,serif" font-size="14.00">_layout_from_proc</text>
<text text-anchor="start" x="575" y="-296.3" font-family="Times,serif" font-size="14.00">set_student_grade</text>
<text text-anchor="start" x="575" y="-281.3" font-family="Times,serif" font-size="14.00">student_grade_params</text>
</g>
<!-- StudentsController -->
<g id="node13" class="node">
<title>StudentsController</title>
<path fill="none" stroke="black" d="M138,-420.5C138,-420.5 268,-420.5 268,-420.5 274,-420.5 280,-426.5 280,-432.5 280,-432.5 280,-636.5 280,-636.5 280,-642.5 274,-648.5 268,-648.5 268,-648.5 138,-648.5 138,-648.5 132,-648.5 126,-642.5 126,-636.5 126,-636.5 126,-432.5 126,-432.5 126,-426.5 132,-420.5 138,-420.5"/>
<text text-anchor="middle" x="203" y="-633.3" font-family="Times,serif" font-size="14.00">StudentsController</text>
<polyline fill="none" stroke="black" points="126,-625.5 280,-625.5 "/>
<text text-anchor="start" x="134" y="-610.3" font-family="Times,serif" font-size="14.00">create</text>
<text text-anchor="start" x="134" y="-595.3" font-family="Times,serif" font-size="14.00">destroy</text>
<text text-anchor="start" x="134" y="-580.3" font-family="Times,serif" font-size="14.00">edit</text>
<text text-anchor="start" x="134" y="-565.3" font-family="Times,serif" font-size="14.00">index</text>
<text text-anchor="start" x="134" y="-550.3" font-family="Times,serif" font-size="14.00">new</text>
<text text-anchor="start" x="134" y="-535.3" font-family="Times,serif" font-size="14.00">show</text>
<text text-anchor="start" x="134" y="-520.3" font-family="Times,serif" font-size="14.00">update</text>
<polyline fill="none" stroke="black" points="126,-512.5 280,-512.5 "/>
<polyline fill="none" stroke="black" points="126,-488.5 280,-488.5 "/>
<text text-anchor="start" x="134" y="-473.3" font-family="Times,serif" font-size="14.00">_layout</text>
<text text-anchor="start" x="134" y="-458.3" font-family="Times,serif" font-size="14.00">_layout_from_proc</text>
<text text-anchor="start" x="134" y="-443.3" font-family="Times,serif" font-size="14.00">set_student</text>
<text text-anchor="start" x="134" y="-428.3" font-family="Times,serif" font-size="14.00">student_params</text>
</g>
<!-- TeachersController -->
<g id="node14" class="node">
<title>TeachersController</title>
<path fill="none" stroke="black" d="M138,-147.5C138,-147.5 267,-147.5 267,-147.5 273,-147.5 279,-153.5 279,-159.5 279,-159.5 279,-363.5 279,-363.5 279,-369.5 273,-375.5 267,-375.5 267,-375.5 138,-375.5 138,-375.5 132,-375.5 126,-369.5 126,-363.5 126,-363.5 126,-159.5 126,-159.5 126,-153.5 132,-147.5 138,-147.5"/>
<text text-anchor="middle" x="202.5" y="-360.3" font-family="Times,serif" font-size="14.00">TeachersController</text>
<polyline fill="none" stroke="black" points="126,-352.5 279,-352.5 "/>
<text text-anchor="start" x="134" y="-337.3" font-family="Times,serif" font-size="14.00">create</text>
<text text-anchor="start" x="134" y="-322.3" font-family="Times,serif" font-size="14.00">destroy</text>
<text text-anchor="start" x="134" y="-307.3" font-family="Times,serif" font-size="14.00">edit</text>
<text text-anchor="start" x="134" y="-292.3" font-family="Times,serif" font-size="14.00">index</text>
<text text-anchor="start" x="134" y="-277.3" font-family="Times,serif" font-size="14.00">new</text>
<text text-anchor="start" x="134" y="-262.3" font-family="Times,serif" font-size="14.00">show</text>
<text text-anchor="start" x="134" y="-247.3" font-family="Times,serif" font-size="14.00">update</text>
<polyline fill="none" stroke="black" points="126,-239.5 279,-239.5 "/>
<polyline fill="none" stroke="black" points="126,-215.5 279,-215.5 "/>
<text text-anchor="start" x="134" y="-200.3" font-family="Times,serif" font-size="14.00">_layout</text>
<text text-anchor="start" x="134" y="-185.3" font-family="Times,serif" font-size="14.00">_layout_from_proc</text>
<text text-anchor="start" x="134" y="-170.3" font-family="Times,serif" font-size="14.00">set_teacher</text>
<text text-anchor="start" x="134" y="-155.3" font-family="Times,serif" font-size="14.00">teacher_params</text>
</g>
<!-- TestsController -->
<g id="node15" class="node">
<title>TestsController</title>
<path fill="none" stroke="black" d="M327,-21.5C327,-21.5 449,-21.5 449,-21.5 455,-21.5 461,-27.5 461,-33.5 461,-33.5 461,-237.5 461,-237.5 461,-243.5 455,-249.5 449,-249.5 449,-249.5 327,-249.5 327,-249.5 321,-249.5 315,-243.5 315,-237.5 315,-237.5 315,-33.5 315,-33.5 315,-27.5 321,-21.5 327,-21.5"/>
<text text-anchor="middle" x="388" y="-234.3" font-family="Times,serif" font-size="14.00">TestsController</text>
<polyline fill="none" stroke="black" points="315,-226.5 461,-226.5 "/>
<text text-anchor="start" x="323" y="-211.3" font-family="Times,serif" font-size="14.00">create</text>
<text text-anchor="start" x="323" y="-196.3" font-family="Times,serif" font-size="14.00">destroy</text>
<text text-anchor="start" x="323" y="-181.3" font-family="Times,serif" font-size="14.00">edit</text>
<text text-anchor="start" x="323" y="-166.3" font-family="Times,serif" font-size="14.00">index</text>
<text text-anchor="start" x="323" y="-151.3" font-family="Times,serif" font-size="14.00">new</text>
<text text-anchor="start" x="323" y="-136.3" font-family="Times,serif" font-size="14.00">show</text>
<text text-anchor="start" x="323" y="-121.3" font-family="Times,serif" font-size="14.00">update</text>
<polyline fill="none" stroke="black" points="315,-113.5 461,-113.5 "/>
<polyline fill="none" stroke="black" points="315,-89.5 461,-89.5 "/>
<text text-anchor="start" x="323" y="-74.3" font-family="Times,serif" font-size="14.00">_layout</text>
<text text-anchor="start" x="323" y="-59.3" font-family="Times,serif" font-size="14.00">_layout_from_proc</text>
<text text-anchor="start" x="323" y="-44.3" font-family="Times,serif" font-size="14.00">set_test</text>
<text text-anchor="start" x="323" y="-29.3" font-family="Times,serif" font-size="14.00">test_params</text>
</g>
<!-- UsersController -->
<g id="node16" class="node">
<title>UsersController</title>
<path fill="none" stroke="black" d="M621,-819.5C621,-819.5 743,-819.5 743,-819.5 749,-819.5 755,-825.5 755,-831.5 755,-831.5 755,-1035.5 755,-1035.5 755,-1041.5 749,-1047.5 743,-1047.5 743,-1047.5 621,-1047.5 621,-1047.5 615,-1047.5 609,-1041.5 609,-1035.5 609,-1035.5 609,-831.5 609,-831.5 609,-825.5 615,-819.5 621,-819.5"/>
<text text-anchor="middle" x="682" y="-1032.3" font-family="Times,serif" font-size="14.00">UsersController</text>
<polyline fill="none" stroke="black" points="609,-1024.5 755,-1024.5 "/>
<text text-anchor="start" x="617" y="-1009.3" font-family="Times,serif" font-size="14.00">create</text>
<text text-anchor="start" x="617" y="-994.3" font-family="Times,serif" font-size="14.00">destroy</text>
<text text-anchor="start" x="617" y="-979.3" font-family="Times,serif" font-size="14.00">edit</text>
<text text-anchor="start" x="617" y="-964.3" font-family="Times,serif" font-size="14.00">index</text>
<text text-anchor="start" x="617" y="-949.3" font-family="Times,serif" font-size="14.00">new</text>
<text text-anchor="start" x="617" y="-934.3" font-family="Times,serif" font-size="14.00">show</text>
<text text-anchor="start" x="617" y="-919.3" font-family="Times,serif" font-size="14.00">update</text>
<polyline fill="none" stroke="black" points="609,-911.5 755,-911.5 "/>
<polyline fill="none" stroke="black" points="609,-887.5 755,-887.5 "/>
<text text-anchor="start" x="617" y="-872.3" font-family="Times,serif" font-size="14.00">_layout</text>
<text text-anchor="start" x="617" y="-857.3" font-family="Times,serif" font-size="14.00">_layout_from_proc</text>
<text text-anchor="start" x="617" y="-842.3" font-family="Times,serif" font-size="14.00">set_user</text>
<text text-anchor="start" x="617" y="-827.3" font-family="Times,serif" font-size="14.00">user_params</text>
</g>
</g>
</svg>
