<?xml version="1.0" encoding="UTF-8" standalone="no"?>
<!DOCTYPE svg PUBLIC "-//W3C//DTD SVG 1.1//EN"
 "http://www.w3.org/Graphics/SVG/1.1/DTD/svg11.dtd">
<!-- Generated by graphviz version 2.43.0 (0)
 -->
<!-- Title: controllers_diagram Pages: 1 -->
<svg width="889pt" height="1056pt"
 viewBox="0.00 0.00 889.00 1056.00" xmlns="http://www.w3.org/2000/svg" xmlns:xlink="http://www.w3.org/1999/xlink">
<g id="graph0" class="graph" transform="scale(1 1) rotate(0) translate(4 1052)">
<title>controllers_diagram</title>
<polygon fill="transparent" stroke="transparent" points="-4,4 -4,-1052 885,-1052 885,4 -4,4"/>
<!-- _diagram_info -->
<g id="node1" class="node">
<title>_diagram_info</title>
<text text-anchor="start" x="386" y="-210.6" font-family="Times,serif" font-size="13.00">Controllers diagram</text>
<text text-anchor="start" x="386" y="-196.6" font-family="Times,serif" font-size="13.00">Date: Jun 13 2022 &#45; 21:50</text>
<text text-anchor="start" x="386" y="-182.6" font-family="Times,serif" font-size="13.00">Migration version: 20220605150413</text>
<text text-anchor="start" x="386" y="-168.6" font-family="Times,serif" font-size="13.00">Generated by RailRoady 1.6.0</text>
<text text-anchor="start" x="386" y="-154.6" font-family="Times,serif" font-size="13.00">http://railroady.prestonlee.com</text>
</g>
<!-- AnimalTypesController -->
<g id="node2" class="node">
<title>AnimalTypesController</title>
<path fill="none" stroke="black" d="M453,-546.5C453,-546.5 610,-546.5 610,-546.5 616,-546.5 622,-552.5 622,-558.5 622,-558.5 622,-762.5 622,-762.5 622,-768.5 616,-774.5 610,-774.5 610,-774.5 453,-774.5 453,-774.5 447,-774.5 441,-768.5 441,-762.5 441,-762.5 441,-558.5 441,-558.5 441,-552.5 447,-546.5 453,-546.5"/>
<text text-anchor="middle" x="531.5" y="-759.3" font-family="Times,serif" font-size="14.00">AnimalTypesController</text>
<polyline fill="none" stroke="black" points="441,-751.5 622,-751.5 "/>
<text text-anchor="start" x="449" y="-736.3" font-family="Times,serif" font-size="14.00">create</text>
<text text-anchor="start" x="449" y="-721.3" font-family="Times,serif" font-size="14.00">destroy</text>
<text text-anchor="start" x="449" y="-706.3" font-family="Times,serif" font-size="14.00">edit</text>
<text text-anchor="start" x="449" y="-691.3" font-family="Times,serif" font-size="14.00">index</text>
<text text-anchor="start" x="449" y="-676.3" font-family="Times,serif" font-size="14.00">new</text>
<text text-anchor="start" x="449" y="-661.3" font-family="Times,serif" font-size="14.00">show</text>
<text text-anchor="start" x="449" y="-646.3" font-family="Times,serif" font-size="14.00">update</text>
<polyline fill="none" stroke="black" points="441,-638.5 622,-638.5 "/>
<polyline fill="none" stroke="black" points="441,-614.5 622,-614.5 "/>
<text text-anchor="start" x="449" y="-599.3" font-family="Times,serif" font-size="14.00">_layout</text>
<text text-anchor="start" x="449" y="-584.3" font-family="Times,serif" font-size="14.00">_layout_from_proc</text>
<text text-anchor="start" x="449" y="-569.3" font-family="Times,serif" font-size="14.00">animal_type_params</text>
<text text-anchor="start" x="449" y="-554.3" font-family="Times,serif" font-size="14.00">set_animal_type</text>
</g>
<!-- AnimalsController -->
<g id="node3" class="node">
<title>AnimalsController</title>
<path fill="none" stroke="black" d="M684,-42.5C684,-42.5 806,-42.5 806,-42.5 812,-42.5 818,-48.5 818,-54.5 818,-54.5 818,-258.5 818,-258.5 818,-264.5 812,-270.5 806,-270.5 806,-270.5 684,-270.5 684,-270.5 678,-270.5 672,-264.5 672,-258.5 672,-258.5 672,-54.5 672,-54.5 672,-48.5 678,-42.5 684,-42.5"/>
<text text-anchor="middle" x="745" y="-255.3" font-family="Times,serif" font-size="14.00">AnimalsController</text>
<polyline fill="none" stroke="black" points="672,-247.5 818,-247.5 "/>
<text text-anchor="start" x="680" y="-232.3" font-family="Times,serif" font-size="14.00">create</text>
<text text-anchor="start" x="680" y="-217.3" font-family="Times,serif" font-size="14.00">destroy</text>
<text text-anchor="start" x="680" y="-202.3" font-family="Times,serif" font-size="14.00">edit</text>
<text text-anchor="start" x="680" y="-187.3" font-family="Times,serif" font-size="14.00">index</text>
<text text-anchor="start" x="680" y="-172.3" font-family="Times,serif" font-size="14.00">new</text>
<text text-anchor="start" x="680" y="-157.3" font-family="Times,serif" font-size="14.00">show</text>
<text text-anchor="start" x="680" y="-142.3" font-family="Times,serif" font-size="14.00">update</text>
<polyline fill="none" stroke="black" points="672,-134.5 818,-134.5 "/>
<polyline fill="none" stroke="black" points="672,-110.5 818,-110.5 "/>
<text text-anchor="start" x="680" y="-95.3" font-family="Times,serif" font-size="14.00">_layout</text>
<text text-anchor="start" x="680" y="-80.3" font-family="Times,serif" font-size="14.00">_layout_from_proc</text>
<text text-anchor="start" x="680" y="-65.3" font-family="Times,serif" font-size="14.00">animal_params</text>
<text text-anchor="start" x="680" y="-50.3" font-family="Times,serif" font-size="14.00">set_animal</text>
</g>
<!-- ApplicationController -->
<g id="node4" class="node">
<title>ApplicationController</title>
<path fill="none" stroke="black" d="M390,-0.5C390,-0.5 536,-0.5 536,-0.5 542,-0.5 548,-6.5 548,-12.5 548,-12.5 548,-97.5 548,-97.5 548,-103.5 542,-109.5 536,-109.5 536,-109.5 390,-109.5 390,-109.5 384,-109.5 378,-103.5 378,-97.5 378,-97.5 378,-12.5 378,-12.5 378,-6.5 384,-0.5 390,-0.5"/>
<text text-anchor="middle" x="463" y="-94.3" font-family="Times,serif" font-size="14.00">ApplicationController</text>
<polyline fill="none" stroke="black" points="378,-86.5 548,-86.5 "/>
<polyline fill="none" stroke="black" points="378,-62.5 548,-62.5 "/>
<polyline fill="none" stroke="black" points="378,-38.5 548,-38.5 "/>
<text text-anchor="start" x="386" y="-23.3" font-family="Times,serif" font-size="14.00">_layout</text>
<text text-anchor="start" x="386" y="-8.3" font-family="Times,serif" font-size="14.00">_layout_from_proc</text>
</g>
<!-- ClassOfStudentsController -->
<g id="node5" class="node">
<title>ClassOfStudentsController</title>
<path fill="none" stroke="black" d="M201,-294.5C201,-294.5 386,-294.5 386,-294.5 392,-294.5 398,-300.5 398,-306.5 398,-306.5 398,-510.5 398,-510.5 398,-516.5 392,-522.5 386,-522.5 386,-522.5 201,-522.5 201,-522.5 195,-522.5 189,-516.5 189,-510.5 189,-510.5 189,-306.5 189,-306.5 189,-300.5 195,-294.5 201,-294.5"/>
<text text-anchor="middle" x="293.5" y="-507.3" font-family="Times,serif" font-size="14.00">ClassOfStudentsController</text>
<polyline fill="none" stroke="black" points="189,-499.5 398,-499.5 "/>
<text text-anchor="start" x="197" y="-484.3" font-family="Times,serif" font-size="14.00">create</text>
<text text-anchor="start" x="197" y="-469.3" font-family="Times,serif" font-size="14.00">destroy</text>
<text text-anchor="start" x="197" y="-454.3" font-family="Times,serif" font-size="14.00">edit</text>
<text text-anchor="start" x="197" y="-439.3" font-family="Times,serif" font-size="14.00">index</text>
<text text-anchor="start" x="197" y="-424.3" font-family="Times,serif" font-size="14.00">new</text>
<text text-anchor="start" x="197" y="-409.3" font-family="Times,serif" font-size="14.00">show</text>
<text text-anchor="start" x="197" y="-394.3" font-family="Times,serif" font-size="14.00">update</text>
<polyline fill="none" stroke="black" points="189,-386.5 398,-386.5 "/>
<polyline fill="none" stroke="black" points="189,-362.5 398,-362.5 "/>
<text text-anchor="start" x="197" y="-347.3" font-family="Times,serif" font-size="14.00">_layout</text>
<text text-anchor="start" x="197" y="-332.3" font-family="Times,serif" font-size="14.00">_layout_from_proc</text>
<text text-anchor="start" x="197" y="-317.3" font-family="Times,serif" font-size="14.00">class_of_student_params</text>
<text text-anchor="start" x="197" y="-302.3" font-family="Times,serif" font-size="14.00">set_class_of_student</text>
</g>
<!-- ClassroomsController -->
<g id="node6" class="node">
<title>ClassroomsController</title>
<path fill="none" stroke="black" d="M243,-567.5C243,-567.5 391,-567.5 391,-567.5 397,-567.5 403,-573.5 403,-579.5 403,-579.5 403,-783.5 403,-783.5 403,-789.5 397,-795.5 391,-795.5 391,-795.5 243,-795.5 243,-795.5 237,-795.5 231,-789.5 231,-783.5 231,-783.5 231,-579.5 231,-579.5 231,-573.5 237,-567.5 243,-567.5"/>
<text text-anchor="middle" x="317" y="-780.3" font-family="Times,serif" font-size="14.00">ClassroomsController</text>
<polyline fill="none" stroke="black" points="231,-772.5 403,-772.5 "/>
<text text-anchor="start" x="239" y="-757.3" font-family="Times,serif" font-size="14.00">create</text>
<text text-anchor="start" x="239" y="-742.3" font-family="Times,serif" font-size="14.00">destroy</text>
<text text-anchor="start" x="239" y="-727.3" font-family="Times,serif" font-size="14.00">edit</text>
<text text-anchor="start" x="239" y="-712.3" font-family="Times,serif" font-size="14.00">index</text>
<text text-anchor="start" x="239" y="-697.3" font-family="Times,serif" font-size="14.00">new</text>
<text text-anchor="start" x="239" y="-682.3" font-family="Times,serif" font-size="14.00">show</text>
<text text-anchor="start" x="239" y="-667.3" font-family="Times,serif" font-size="14.00">update</text>
<polyline fill="none" stroke="black" points="231,-659.5 403,-659.5 "/>
<polyline fill="none" stroke="black" points="231,-635.5 403,-635.5 "/>
<text text-anchor="start" x="239" y="-620.3" font-family="Times,serif" font-size="14.00">_layout</text>
<text text-anchor="start" x="239" y="-605.3" font-family="Times,serif" font-size="14.00">_layout_from_proc</text>
<text text-anchor="start" x="239" y="-590.3" font-family="Times,serif" font-size="14.00">classroom_params</text>
<text text-anchor="start" x="239" y="-575.3" font-family="Times,serif" font-size="14.00">set_classroom</text>
</g>
<!-- CoursesController -->
<g id="node7" class="node">
<title>CoursesController</title>
<path fill="none" stroke="black" d="M684,-315.5C684,-315.5 807,-315.5 807,-315.5 813,-315.5 819,-321.5 819,-327.5 819,-327.5 819,-531.5 819,-531.5 819,-537.5 813,-543.5 807,-543.5 807,-543.5 684,-543.5 684,-543.5 678,-543.5 672,-537.5 672,-531.5 672,-531.5 672,-327.5 672,-327.5 672,-321.5 678,-315.5 684,-315.5"/>
<text text-anchor="middle" x="745.5" y="-528.3" font-family="Times,serif" font-size="14.00">CoursesController</text>
<polyline fill="none" stroke="black" points="672,-520.5 819,-520.5 "/>
<text text-anchor="start" x="680" y="-505.3" font-family="Times,serif" font-size="14.00">create</text>
<text text-anchor="start" x="680" y="-490.3" font-family="Times,serif" font-size="14.00">destroy</text>
<text text-anchor="start" x="680" y="-475.3" font-family="Times,serif" font-size="14.00">edit</text>
<text text-anchor="start" x="680" y="-460.3" font-family="Times,serif" font-size="14.00">index</text>
<text text-anchor="start" x="680" y="-445.3" font-family="Times,serif" font-size="14.00">new</text>
<text text-anchor="start" x="680" y="-430.3" font-family="Times,serif" font-size="14.00">show</text>
<text text-anchor="start" x="680" y="-415.3" font-family="Times,serif" font-size="14.00">update</text>
<polyline fill="none" stroke="black" points="672,-407.5 819,-407.5 "/>
<polyline fill="none" stroke="black" points="672,-383.5 819,-383.5 "/>
<text text-anchor="start" x="680" y="-368.3" font-family="Times,serif" font-size="14.00">_layout</text>
<text text-anchor="start" x="680" y="-353.3" font-family="Times,serif" font-size="14.00">_layout_from_proc</text>
<text text-anchor="start" x="680" y="-338.3" font-family="Times,serif" font-size="14.00">course_params</text>
<text text-anchor="start" x="680" y="-323.3" font-family="Times,serif" font-size="14.00">set_course</text>
</g>
<!-- LessonsController -->
<g id="node8" class="node">
<title>LessonsController</title>
<path fill="none" stroke="black" d="M684,-588.5C684,-588.5 806,-588.5 806,-588.5 812,-588.5 818,-594.5 818,-600.5 818,-600.5 818,-804.5 818,-804.5 818,-810.5 812,-816.5 806,-816.5 806,-816.5 684,-816.5 684,-816.5 678,-816.5 672,-810.5 672,-804.5 672,-804.5 672,-600.5 672,-600.5 672,-594.5 678,-588.5 684,-588.5"/>
<text text-anchor="middle" x="745" y="-801.3" font-family="Times,serif" font-size="14.00">LessonsController</text>
<polyline fill="none" stroke="black" points="672,-793.5 818,-793.5 "/>
<text text-anchor="start" x="680" y="-778.3" font-family="Times,serif" font-size="14.00">create</text>
<text text-anchor="start" x="680" y="-763.3" font-family="Times,serif" font-size="14.00">destroy</text>
<text text-anchor="start" x="680" y="-748.3" font-family="Times,serif" font-size="14.00">edit</text>
<text text-anchor="start" x="680" y="-733.3" font-family="Times,serif" font-size="14.00">index</text>
<text text-anchor="start" x="680" y="-718.3" font-family="Times,serif" font-size="14.00">new</text>
<text text-anchor="start" x="680" y="-703.3" font-family="Times,serif" font-size="14.00">show</text>
<text text-anchor="start" x="680" y="-688.3" font-family="Times,serif" font-size="14.00">update</text>
<polyline fill="none" stroke="black" points="672,-680.5 818,-680.5 "/>
<polyline fill="none" stroke="black" points="672,-656.5 818,-656.5 "/>
<text text-anchor="start" x="680" y="-641.3" font-family="Times,serif" font-size="14.00">_layout</text>
<text text-anchor="start" x="680" y="-626.3" font-family="Times,serif" font-size="14.00">_layout_from_proc</text>
<text text-anchor="start" x="680" y="-611.3" font-family="Times,serif" font-size="14.00">lesson_params</text>
<text text-anchor="start" x="680" y="-596.3" font-family="Times,serif" font-size="14.00">set_lesson</text>
</g>
<!-- PresencesController -->
<g id="node9" class="node">
<title>PresencesController</title>
<path fill="none" stroke="black" d="M33,-693.5C33,-693.5 171,-693.5 171,-693.5 177,-693.5 183,-699.5 183,-705.5 183,-705.5 183,-909.5 183,-909.5 183,-915.5 177,-921.5 171,-921.5 171,-921.5 33,-921.5 33,-921.5 27,-921.5 21,-915.5 21,-909.5 21,-909.5 21,-705.5 21,-705.5 21,-699.5 27,-693.5 33,-693.5"/>
<text text-anchor="middle" x="102" y="-906.3" font-family="Times,serif" font-size="14.00">PresencesController</text>
<polyline fill="none" stroke="black" points="21,-898.5 183,-898.5 "/>
<text text-anchor="start" x="29" y="-883.3" font-family="Times,serif" font-size="14.00">create</text>
<text text-anchor="start" x="29" y="-868.3" font-family="Times,serif" font-size="14.00">destroy</text>
<text text-anchor="start" x="29" y="-853.3" font-family="Times,serif" font-size="14.00">edit</text>
<text text-anchor="start" x="29" y="-838.3" font-family="Times,serif" font-size="14.00">index</text>
<text text-anchor="start" x="29" y="-823.3" font-family="Times,serif" font-size="14.00">new</text>
<text text-anchor="start" x="29" y="-808.3" font-family="Times,serif" font-size="14.00">show</text>
<text text-anchor="start" x="29" y="-793.3" font-family="Times,serif" font-size="14.00">update</text>
<polyline fill="none" stroke="black" points="21,-785.5 183,-785.5 "/>
<polyline fill="none" stroke="black" points="21,-761.5 183,-761.5 "/>
<text text-anchor="start" x="29" y="-746.3" font-family="Times,serif" font-size="14.00">_layout</text>
<text text-anchor="start" x="29" y="-731.3" font-family="Times,serif" font-size="14.00">_layout_from_proc</text>
<text text-anchor="start" x="29" y="-716.3" font-family="Times,serif" font-size="14.00">presence_params</text>
<text text-anchor="start" x="29" y="-701.3" font-family="Times,serif" font-size="14.00">set_presence</text>
</g>
<!-- SessionsController -->
<g id="node10" class="node">
<title>SessionsController</title>
<path fill="none" stroke="black" d="M306,-840.5C306,-840.5 434,-840.5 434,-840.5 440,-840.5 446,-846.5 446,-852.5 446,-852.5 446,-966.5 446,-966.5 446,-972.5 440,-978.5 434,-978.5 434,-978.5 306,-978.5 306,-978.5 300,-978.5 294,-972.5 294,-966.5 294,-966.5 294,-852.5 294,-852.5 294,-846.5 300,-840.5 306,-840.5"/>
<text text-anchor="middle" x="370" y="-963.3" font-family="Times,serif" font-size="14.00">SessionsController</text>
<polyline fill="none" stroke="black" points="294,-955.5 446,-955.5 "/>
<text text-anchor="start" x="302" y="-940.3" font-family="Times,serif" font-size="14.00">create</text>
<text text-anchor="start" x="302" y="-925.3" font-family="Times,serif" font-size="14.00">destroy</text>
<text text-anchor="start" x="302" y="-910.3" font-family="Times,serif" font-size="14.00">new</text>
<polyline fill="none" stroke="black" points="294,-902.5 446,-902.5 "/>
<polyline fill="none" stroke="black" points="294,-878.5 446,-878.5 "/>
<text text-anchor="start" x="302" y="-863.3" font-family="Times,serif" font-size="14.00">_layout</text>
<text text-anchor="start" x="302" y="-848.3" font-family="Times,serif" font-size="14.00">_layout_from_proc</text>
</g>
<!-- StaticController -->
<g id="node11" class="node">
<title>StaticController</title>
<path fill="none" stroke="black" d="M747,-861.5C747,-861.5 869,-861.5 869,-861.5 875,-861.5 881,-867.5 881,-873.5 881,-873.5 881,-972.5 881,-972.5 881,-978.5 875,-984.5 869,-984.5 869,-984.5 747,-984.5 747,-984.5 741,-984.5 735,-978.5 735,-972.5 735,-972.5 735,-873.5 735,-873.5 735,-867.5 741,-861.5 747,-861.5"/>
<text text-anchor="middle" x="808" y="-969.3" font-family="Times,serif" font-size="14.00">StaticController</text>
<polyline fill="none" stroke="black" points="735,-961.5 881,-961.5 "/>
<text text-anchor="start" x="743" y="-946.3" font-family="Times,serif" font-size="14.00">feed</text>
<text text-anchor="start" x="743" y="-931.3" font-family="Times,serif" font-size="14.00">index</text>
<polyline fill="none" stroke="black" points="735,-923.5 881,-923.5 "/>
<polyline fill="none" stroke="black" points="735,-899.5 881,-899.5 "/>
<text text-anchor="start" x="743" y="-884.3" font-family="Times,serif" font-size="14.00">_layout</text>
<text text-anchor="start" x="743" y="-869.3" font-family="Times,serif" font-size="14.00">_layout_from_proc</text>
</g>
<!-- StudentGradesController -->
<g id="node12" class="node">
<title>StudentGradesController</title>
<path fill="none" stroke="black" d="M453,-273.5C453,-273.5 626,-273.5 626,-273.5 632,-273.5 638,-279.5 638,-285.5 638,-285.5 638,-489.5 638,-489.5 638,-495.5 632,-501.5 626,-501.5 626,-501.5 453,-501.5 453,-501.5 447,-501.5 441,-495.5 441,-489.5 441,-489.5 441,-285.5 441,-285.5 441,-279.5 447,-273.5 453,-273.5"/>
<text text-anchor="middle" x="539.5" y="-486.3" font-family="Times,serif" font-size="14.00">StudentGradesController</text>
<polyline fill="none" stroke="black" points="441,-478.5 638,-478.5 "/>
<text text-anchor="start" x="449" y="-463.3" font-family="Times,serif" font-size="14.00">create</text>
<text text-anchor="start" x="449" y="-448.3" font-family="Times,serif" font-size="14.00">destroy</text>
<text text-anchor="start" x="449" y="-433.3" font-family="Times,serif" font-size="14.00">edit</text>
<text text-anchor="start" x="449" y="-418.3" font-family="Times,serif" font-size="14.00">index</text>
<text text-anchor="start" x="449" y="-403.3" font-family="Times,serif" font-size="14.00">new</text>
<text text-anchor="start" x="449" y="-388.3" font-family="Times,serif" font-size="14.00">show</text>
<text text-anchor="start" x="449" y="-373.3" font-family="Times,serif" font-size="14.00">update</text>
<polyline fill="none" stroke="black" points="441,-365.5 638,-365.5 "/>
<polyline fill="none" stroke="black" points="441,-341.5 638,-341.5 "/>
<text text-anchor="start" x="449" y="-326.3" font-family="Times,serif" font-size="14.00">_layout</text>
<text text-anchor="start" x="449" y="-311.3" font-family="Times,serif" font-size="14.00">_layout_from_proc</text>
<text text-anchor="start" x="449" y="-296.3" font-family="Times,serif" font-size="14.00">set_student_grade</text>
<text text-anchor="start" x="449" y="-281.3" font-family="Times,serif" font-size="14.00">student_grade_params</text>
</g>
<!-- StudentsController -->
<g id="node13" class="node">
<title>StudentsController</title>
<path fill="none" stroke="black" d="M12,-420.5C12,-420.5 142,-420.5 142,-420.5 148,-420.5 154,-426.5 154,-432.5 154,-432.5 154,-636.5 154,-636.5 154,-642.5 148,-648.5 142,-648.5 142,-648.5 12,-648.5 12,-648.5 6,-648.5 0,-642.5 0,-636.5 0,-636.5 0,-432.5 0,-432.5 0,-426.5 6,-420.5 12,-420.5"/>
<text text-anchor="middle" x="77" y="-633.3" font-family="Times,serif" font-size="14.00">StudentsController</text>
<polyline fill="none" stroke="black" points="0,-625.5 154,-625.5 "/>
<text text-anchor="start" x="8" y="-610.3" font-family="Times,serif" font-size="14.00">create</text>
<text text-anchor="start" x="8" y="-595.3" font-family="Times,serif" font-size="14.00">destroy</text>
<text text-anchor="start" x="8" y="-580.3" font-family="Times,serif" font-size="14.00">edit</text>
<text text-anchor="start" x="8" y="-565.3" font-family="Times,serif" font-size="14.00">index</text>
<text text-anchor="start" x="8" y="-550.3" font-family="Times,serif" font-size="14.00">new</text>
<text text-anchor="start" x="8" y="-535.3" font-family="Times,serif" font-size="14.00">show</text>
<text text-anchor="start" x="8" y="-520.3" font-family="Times,serif" font-size="14.00">update</text>
<polyline fill="none" stroke="black" points="0,-512.5 154,-512.5 "/>
<polyline fill="none" stroke="black" points="0,-488.5 154,-488.5 "/>
<text text-anchor="start" x="8" y="-473.3" font-family="Times,serif" font-size="14.00">_layout</text>
<text text-anchor="start" x="8" y="-458.3" font-family="Times,serif" font-size="14.00">_layout_from_proc</text>
<text text-anchor="start" x="8" y="-443.3" font-family="Times,serif" font-size="14.00">set_student</text>
<text text-anchor="start" x="8" y="-428.3" font-family="Times,serif" font-size="14.00">student_params</text>
</g>
<!-- TeachersController -->
<g id="node14" class="node">
<title>TeachersController</title>
<path fill="none" stroke="black" d="M12,-147.5C12,-147.5 141,-147.5 141,-147.5 147,-147.5 153,-153.5 153,-159.5 153,-159.5 153,-363.5 153,-363.5 153,-369.5 147,-375.5 141,-375.5 141,-375.5 12,-375.5 12,-375.5 6,-375.5 0,-369.5 0,-363.5 0,-363.5 0,-159.5 0,-159.5 0,-153.5 6,-147.5 12,-147.5"/>
<text text-anchor="middle" x="76.5" y="-360.3" font-family="Times,serif" font-size="14.00">TeachersController</text>
<polyline fill="none" stroke="black" points="0,-352.5 153,-352.5 "/>
<text text-anchor="start" x="8" y="-337.3" font-family="Times,serif" font-size="14.00">create</text>
<text text-anchor="start" x="8" y="-322.3" font-family="Times,serif" font-size="14.00">destroy</text>
<text text-anchor="start" x="8" y="-307.3" font-family="Times,serif" font-size="14.00">edit</text>
<text text-anchor="start" x="8" y="-292.3" font-family="Times,serif" font-size="14.00">index</text>
<text text-anchor="start" x="8" y="-277.3" font-family="Times,serif" font-size="14.00">new</text>
<text text-anchor="start" x="8" y="-262.3" font-family="Times,serif" font-size="14.00">show</text>
<text text-anchor="start" x="8" y="-247.3" font-family="Times,serif" font-size="14.00">update</text>
<polyline fill="none" stroke="black" points="0,-239.5 153,-239.5 "/>
<polyline fill="none" stroke="black" points="0,-215.5 153,-215.5 "/>
<text text-anchor="start" x="8" y="-200.3" font-family="Times,serif" font-size="14.00">_layout</text>
<text text-anchor="start" x="8" y="-185.3" font-family="Times,serif" font-size="14.00">_layout_from_proc</text>
<text text-anchor="start" x="8" y="-170.3" font-family="Times,serif" font-size="14.00">set_teacher</text>
<text text-anchor="start" x="8" y="-155.3" font-family="Times,serif" font-size="14.00">teacher_params</text>
</g>
<!-- TestsController -->
<g id="node15" class="node">
<title>TestsController</title>
<path fill="none" stroke="black" d="M201,-21.5C201,-21.5 323,-21.5 323,-21.5 329,-21.5 335,-27.5 335,-33.5 335,-33.5 335,-237.5 335,-237.5 335,-243.5 329,-249.5 323,-249.5 323,-249.5 201,-249.5 201,-249.5 195,-249.5 189,-243.5 189,-237.5 189,-237.5 189,-33.5 189,-33.5 189,-27.5 195,-21.5 201,-21.5"/>
<text text-anchor="middle" x="262" y="-234.3" font-family="Times,serif" font-size="14.00">TestsController</text>
<polyline fill="none" stroke="black" points="189,-226.5 335,-226.5 "/>
<text text-anchor="start" x="197" y="-211.3" font-family="Times,serif" font-size="14.00">create</text>
<text text-anchor="start" x="197" y="-196.3" font-family="Times,serif" font-size="14.00">destroy</text>
<text text-anchor="start" x="197" y="-181.3" font-family="Times,serif" font-size="14.00">edit</text>
<text text-anchor="start" x="197" y="-166.3" font-family="Times,serif" font-size="14.00">index</text>
<text text-anchor="start" x="197" y="-151.3" font-family="Times,serif" font-size="14.00">new</text>
<text text-anchor="start" x="197" y="-136.3" font-family="Times,serif" font-size="14.00">show</text>
<text text-anchor="start" x="197" y="-121.3" font-family="Times,serif" font-size="14.00">update</text>
<polyline fill="none" stroke="black" points="189,-113.5 335,-113.5 "/>
<polyline fill="none" stroke="black" points="189,-89.5 335,-89.5 "/>
<text text-anchor="start" x="197" y="-74.3" font-family="Times,serif" font-size="14.00">_layout</text>
<text text-anchor="start" x="197" y="-59.3" font-family="Times,serif" font-size="14.00">_layout_from_proc</text>
<text text-anchor="start" x="197" y="-44.3" font-family="Times,serif" font-size="14.00">set_test</text>
<text text-anchor="start" x="197" y="-29.3" font-family="Times,serif" font-size="14.00">test_params</text>
</g>
<!-- UsersController -->
<g id="node16" class="node">
<title>UsersController</title>
<path fill="none" stroke="black" d="M495,-819.5C495,-819.5 617,-819.5 617,-819.5 623,-819.5 629,-825.5 629,-831.5 629,-831.5 629,-1035.5 629,-1035.5 629,-1041.5 623,-1047.5 617,-1047.5 617,-1047.5 495,-1047.5 495,-1047.5 489,-1047.5 483,-1041.5 483,-1035.5 483,-1035.5 483,-831.5 483,-831.5 483,-825.5 489,-819.5 495,-819.5"/>
<text text-anchor="middle" x="556" y="-1032.3" font-family="Times,serif" font-size="14.00">UsersController</text>
<polyline fill="none" stroke="black" points="483,-1024.5 629,-1024.5 "/>
<text text-anchor="start" x="491" y="-1009.3" font-family="Times,serif" font-size="14.00">create</text>
<text text-anchor="start" x="491" y="-994.3" font-family="Times,serif" font-size="14.00">destroy</text>
<text text-anchor="start" x="491" y="-979.3" font-family="Times,serif" font-size="14.00">edit</text>
<text text-anchor="start" x="491" y="-964.3" font-family="Times,serif" font-size="14.00">index</text>
<text text-anchor="start" x="491" y="-949.3" font-family="Times,serif" font-size="14.00">new</text>
<text text-anchor="start" x="491" y="-934.3" font-family="Times,serif" font-size="14.00">show</text>
<text text-anchor="start" x="491" y="-919.3" font-family="Times,serif" font-size="14.00">update</text>
<polyline fill="none" stroke="black" points="483,-911.5 629,-911.5 "/>
<polyline fill="none" stroke="black" points="483,-887.5 629,-887.5 "/>
<text text-anchor="start" x="491" y="-872.3" font-family="Times,serif" font-size="14.00">_layout</text>
<text text-anchor="start" x="491" y="-857.3" font-family="Times,serif" font-size="14.00">_layout_from_proc</text>
<text text-anchor="start" x="491" y="-842.3" font-family="Times,serif" font-size="14.00">set_user</text>
<text text-anchor="start" x="491" y="-827.3" font-family="Times,serif" font-size="14.00">user_params</text>
</g>
</g>
</svg>
