<?xml version="1.0" encoding="UTF-8" standalone="no"?>
<!DOCTYPE svg PUBLIC "-//W3C//DTD SVG 1.1//EN"
 "http://www.w3.org/Graphics/SVG/1.1/DTD/svg11.dtd">
<!-- Generated by graphviz version 2.43.0 (0)
 -->
<!-- Title: models_diagram Pages: 1 -->
<svg width="1301pt" height="1213pt"
 viewBox="0.00 0.00 1301.04 1213.00" xmlns="http://www.w3.org/2000/svg" xmlns:xlink="http://www.w3.org/1999/xlink">
<g id="graph0" class="graph" transform="scale(1 1) rotate(0) translate(4 1209)">
<title>models_diagram</title>
<polygon fill="transparent" stroke="transparent" points="-4,4 -4,-1209 1297.04,-1209 1297.04,4 -4,4"/>
<!-- _diagram_info -->
<g id="node1" class="node">
<title>_diagram_info</title>
<text text-anchor="start" x="8" y="-1168.6" font-family="Times,serif" font-size="13.00">Models diagram</text>
<text text-anchor="start" x="8" y="-1154.6" font-family="Times,serif" font-size="13.00">Date: May 17 2022 &#45; 17:05</text>
<text text-anchor="start" x="8" y="-1140.6" font-family="Times,serif" font-size="13.00">Migration version: 20220503161238</text>
<text text-anchor="start" x="8" y="-1126.6" font-family="Times,serif" font-size="13.00">Generated by RailRoady 1.6.0</text>
<text text-anchor="start" x="8" y="-1112.6" font-family="Times,serif" font-size="13.00">http://railroady.prestonlee.com</text>
</g>
<!-- Animal -->
<g id="node2" class="node">
<title>Animal</title>
<path fill="none" stroke="black" d="M289.5,-1091C289.5,-1091 453.5,-1091 453.5,-1091 459.5,-1091 465.5,-1097 465.5,-1103 465.5,-1103 465.5,-1185 465.5,-1185 465.5,-1191 459.5,-1197 453.5,-1197 453.5,-1197 289.5,-1197 289.5,-1197 283.5,-1197 277.5,-1191 277.5,-1185 277.5,-1185 277.5,-1103 277.5,-1103 277.5,-1097 283.5,-1091 289.5,-1091"/>
<text text-anchor="middle" x="371.5" y="-1181.8" font-family="Times,serif" font-size="14.00">Animal</text>
<polyline fill="none" stroke="black" points="277.5,-1174 465.5,-1174 "/>
<text text-anchor="start" x="285.5" y="-1158.8" font-family="Times,serif" font-size="14.00">id :integer</text>
<text text-anchor="start" x="285.5" y="-1143.8" font-family="Times,serif" font-size="14.00">code :varchar</text>
<text text-anchor="start" x="285.5" y="-1128.8" font-family="Times,serif" font-size="14.00">animal_type_id :integer</text>
<text text-anchor="start" x="285.5" y="-1113.8" font-family="Times,serif" font-size="14.00">created_at :datetime(6)</text>
<text text-anchor="start" x="285.5" y="-1098.8" font-family="Times,serif" font-size="14.00">updated_at :datetime(6)</text>
</g>
<!-- AnimalType -->
<g id="node3" class="node">
<title>AnimalType</title>
<path fill="none" stroke="black" d="M289.5,-903C289.5,-903 453.5,-903 453.5,-903 459.5,-903 465.5,-909 465.5,-915 465.5,-915 465.5,-997 465.5,-997 465.5,-1003 459.5,-1009 453.5,-1009 453.5,-1009 289.5,-1009 289.5,-1009 283.5,-1009 277.5,-1003 277.5,-997 277.5,-997 277.5,-915 277.5,-915 277.5,-909 283.5,-903 289.5,-903"/>
<text text-anchor="middle" x="371.5" y="-993.8" font-family="Times,serif" font-size="14.00">AnimalType</text>
<polyline fill="none" stroke="black" points="277.5,-986 465.5,-986 "/>
<text text-anchor="start" x="285.5" y="-970.8" font-family="Times,serif" font-size="14.00">id :integer</text>
<text text-anchor="start" x="285.5" y="-955.8" font-family="Times,serif" font-size="14.00">species :varchar</text>
<text text-anchor="start" x="285.5" y="-940.8" font-family="Times,serif" font-size="14.00">group :varchar</text>
<text text-anchor="start" x="285.5" y="-925.8" font-family="Times,serif" font-size="14.00">created_at :datetime(6)</text>
<text text-anchor="start" x="285.5" y="-910.8" font-family="Times,serif" font-size="14.00">updated_at :datetime(6)</text>
</g>
<!-- Animal&#45;&gt;AnimalType -->
<g id="edge1" class="edge">
<title>Animal&#45;&gt;AnimalType</title>
<path fill="none" stroke="#144c19" d="M371.5,-1080.61C371.5,-1060.88 371.5,-1039.08 371.5,-1019.34"/>
<polygon fill="#144c19" stroke="#144c19" points="371.5,-1080.69 367,-1090.69 371.5,-1085.69 371.5,-1090.69 371.5,-1090.69 371.5,-1090.69 371.5,-1085.69 376,-1090.69 371.5,-1080.69 371.5,-1080.69"/>
<polygon fill="#144c19" stroke="#144c19" points="371.5,-1019.24 376,-1009.24 371.5,-1014.24 371.5,-1009.24 371.5,-1009.24 371.5,-1009.24 371.5,-1014.24 367,-1009.24 371.5,-1019.24 371.5,-1019.24"/>
</g>
<!-- Lesson -->
<g id="node8" class="node">
<title>Lesson</title>
<path fill="none" stroke="black" d="M688,-865.5C688,-865.5 879,-865.5 879,-865.5 885,-865.5 891,-871.5 891,-877.5 891,-877.5 891,-1034.5 891,-1034.5 891,-1040.5 885,-1046.5 879,-1046.5 879,-1046.5 688,-1046.5 688,-1046.5 682,-1046.5 676,-1040.5 676,-1034.5 676,-1034.5 676,-877.5 676,-877.5 676,-871.5 682,-865.5 688,-865.5"/>
<text text-anchor="middle" x="783.5" y="-1031.3" font-family="Times,serif" font-size="14.00">Lesson</text>
<polyline fill="none" stroke="black" points="676,-1023.5 891,-1023.5 "/>
<text text-anchor="start" x="684" y="-1008.3" font-family="Times,serif" font-size="14.00">id :integer</text>
<text text-anchor="start" x="684" y="-993.3" font-family="Times,serif" font-size="14.00">date :datetime(6)</text>
<text text-anchor="start" x="684" y="-978.3" font-family="Times,serif" font-size="14.00">teacher_id :integer</text>
<text text-anchor="start" x="684" y="-963.3" font-family="Times,serif" font-size="14.00">class_of_student_id :integer</text>
<text text-anchor="start" x="684" y="-948.3" font-family="Times,serif" font-size="14.00">animal_id :integer</text>
<text text-anchor="start" x="684" y="-933.3" font-family="Times,serif" font-size="14.00">test_id :integer</text>
<text text-anchor="start" x="684" y="-918.3" font-family="Times,serif" font-size="14.00">classroom_id :integer</text>
<text text-anchor="start" x="684" y="-903.3" font-family="Times,serif" font-size="14.00">course_id :integer</text>
<text text-anchor="start" x="684" y="-888.3" font-family="Times,serif" font-size="14.00">created_at :datetime(6)</text>
<text text-anchor="start" x="684" y="-873.3" font-family="Times,serif" font-size="14.00">updated_at :datetime(6)</text>
</g>
<!-- Animal&#45;&gt;Lesson -->
<g id="edge2" class="edge">
<title>Animal&#45;&gt;Lesson</title>
<path fill="none" stroke="#ec9b6f" d="M468.24,-1086.13C470.34,-1085.07 472.43,-1084.02 474.5,-1083 536.42,-1052.53 607.62,-1023.13 666.05,-1000.41"/>
<polygon fill="#ec9b6f" stroke="#ec9b6f" points="467.86,-1086.33 456.91,-1086.94 463.42,-1088.63 458.99,-1090.93 458.99,-1090.93 458.99,-1090.93 463.42,-1088.63 461.06,-1094.93 467.86,-1086.33 467.86,-1086.33"/>
<polygon fill="#ec9b6f" stroke="#ec9b6f" points="666.36,-1000.29 677.31,-1000.88 671.03,-998.48 675.69,-996.68 675.69,-996.68 675.69,-996.68 671.03,-998.48 674.06,-992.48 666.36,-1000.29 666.36,-1000.29"/>
</g>
<!-- ApplicationRecord -->
<g id="node4" class="node">
<title>ApplicationRecord</title>
<ellipse fill="none" stroke="black" cx="1197.5" cy="-1144" rx="95.58" ry="18"/>
<text text-anchor="middle" x="1197.5" y="-1140.3" font-family="Times,serif" font-size="14.00">ApplicationRecord</text>
</g>
<!-- ClassOfStudent -->
<g id="node5" class="node">
<title>ClassOfStudent</title>
<path fill="none" stroke="black" d="M495.5,-1083.5C495.5,-1083.5 659.5,-1083.5 659.5,-1083.5 665.5,-1083.5 671.5,-1089.5 671.5,-1095.5 671.5,-1095.5 671.5,-1192.5 671.5,-1192.5 671.5,-1198.5 665.5,-1204.5 659.5,-1204.5 659.5,-1204.5 495.5,-1204.5 495.5,-1204.5 489.5,-1204.5 483.5,-1198.5 483.5,-1192.5 483.5,-1192.5 483.5,-1095.5 483.5,-1095.5 483.5,-1089.5 489.5,-1083.5 495.5,-1083.5"/>
<text text-anchor="middle" x="577.5" y="-1189.3" font-family="Times,serif" font-size="14.00">ClassOfStudent</text>
<polyline fill="none" stroke="black" points="483.5,-1181.5 671.5,-1181.5 "/>
<text text-anchor="start" x="491.5" y="-1166.3" font-family="Times,serif" font-size="14.00">id :integer</text>
<text text-anchor="start" x="491.5" y="-1151.3" font-family="Times,serif" font-size="14.00">symbol :varchar</text>
<text text-anchor="start" x="491.5" y="-1136.3" font-family="Times,serif" font-size="14.00">yearOfStart :integer</text>
<text text-anchor="start" x="491.5" y="-1121.3" font-family="Times,serif" font-size="14.00">teacher_id :integer</text>
<text text-anchor="start" x="491.5" y="-1106.3" font-family="Times,serif" font-size="14.00">created_at :datetime(6)</text>
<text text-anchor="start" x="491.5" y="-1091.3" font-family="Times,serif" font-size="14.00">updated_at :datetime(6)</text>
</g>
<!-- ClassOfStudent&#45;&gt;Lesson -->
<g id="edge4" class="edge">
<title>ClassOfStudent&#45;&gt;Lesson</title>
<path fill="none" stroke="#84e342" d="M651.21,-1076.45C659.46,-1069 667.99,-1061.3 676.55,-1053.57"/>
<polygon fill="#84e342" stroke="#84e342" points="650.95,-1076.68 640.51,-1080.04 647.24,-1080.03 643.53,-1083.38 643.53,-1083.38 643.53,-1083.38 647.24,-1080.03 646.55,-1086.72 650.95,-1076.68 650.95,-1076.68"/>
<polygon fill="#84e342" stroke="#84e342" points="676.65,-1053.47 687.09,-1050.11 680.37,-1050.12 684.08,-1046.77 684.08,-1046.77 684.08,-1046.77 680.37,-1050.12 681.06,-1043.43 676.65,-1053.47 676.65,-1053.47"/>
</g>
<!-- Student -->
<g id="node10" class="node">
<title>Student</title>
<path fill="none" stroke="black" d="M691,-534.5C691,-534.5 882,-534.5 882,-534.5 888,-534.5 894,-540.5 894,-546.5 894,-546.5 894,-658.5 894,-658.5 894,-664.5 888,-670.5 882,-670.5 882,-670.5 691,-670.5 691,-670.5 685,-670.5 679,-664.5 679,-658.5 679,-658.5 679,-546.5 679,-546.5 679,-540.5 685,-534.5 691,-534.5"/>
<text text-anchor="middle" x="786.5" y="-655.3" font-family="Times,serif" font-size="14.00">Student</text>
<polyline fill="none" stroke="black" points="679,-647.5 894,-647.5 "/>
<text text-anchor="start" x="687" y="-632.3" font-family="Times,serif" font-size="14.00">id :integer</text>
<text text-anchor="start" x="687" y="-617.3" font-family="Times,serif" font-size="14.00">firstName :varchar</text>
<text text-anchor="start" x="687" y="-602.3" font-family="Times,serif" font-size="14.00">lastName :varchar</text>
<text text-anchor="start" x="687" y="-587.3" font-family="Times,serif" font-size="14.00">user_id :integer</text>
<text text-anchor="start" x="687" y="-572.3" font-family="Times,serif" font-size="14.00">class_of_student_id :integer</text>
<text text-anchor="start" x="687" y="-557.3" font-family="Times,serif" font-size="14.00">created_at :datetime(6)</text>
<text text-anchor="start" x="687" y="-542.3" font-family="Times,serif" font-size="14.00">updated_at :datetime(6)</text>
</g>
<!-- ClassOfStudent&#45;&gt;Student -->
<g id="edge5" class="edge">
<title>ClassOfStudent&#45;&gt;Student</title>
<path fill="none" stroke="#7ed968" d="M589.47,-1073.44C608.59,-966.98 647.44,-769.38 682.5,-707 688.05,-697.12 694.81,-687.56 702.19,-678.49"/>
<polygon fill="#7ed968" stroke="#7ed968" points="589.44,-1073.61 583.25,-1082.66 588.56,-1078.53 587.68,-1083.45 587.68,-1083.45 587.68,-1083.45 588.56,-1078.53 592.11,-1084.24 589.44,-1073.61 589.44,-1073.61"/>
<polygon fill="#7ed968" stroke="#7ed968" points="702.37,-678.28 712.26,-673.56 705.6,-674.47 708.83,-670.65 708.83,-670.65 708.83,-670.65 705.6,-674.47 705.39,-667.74 702.37,-678.28 702.37,-678.28"/>
</g>
<!-- Teacher -->
<g id="node12" class="node">
<title>Teacher</title>
<path fill="none" stroke="black" d="M499.5,-173.5C499.5,-173.5 663.5,-173.5 663.5,-173.5 669.5,-173.5 675.5,-179.5 675.5,-185.5 675.5,-185.5 675.5,-282.5 675.5,-282.5 675.5,-288.5 669.5,-294.5 663.5,-294.5 663.5,-294.5 499.5,-294.5 499.5,-294.5 493.5,-294.5 487.5,-288.5 487.5,-282.5 487.5,-282.5 487.5,-185.5 487.5,-185.5 487.5,-179.5 493.5,-173.5 499.5,-173.5"/>
<text text-anchor="middle" x="581.5" y="-279.3" font-family="Times,serif" font-size="14.00">Teacher</text>
<polyline fill="none" stroke="black" points="487.5,-271.5 675.5,-271.5 "/>
<text text-anchor="start" x="495.5" y="-256.3" font-family="Times,serif" font-size="14.00">id :integer</text>
<text text-anchor="start" x="495.5" y="-241.3" font-family="Times,serif" font-size="14.00">firstName :varchar</text>
<text text-anchor="start" x="495.5" y="-226.3" font-family="Times,serif" font-size="14.00">lastName :varchar</text>
<text text-anchor="start" x="495.5" y="-211.3" font-family="Times,serif" font-size="14.00">user_id :integer</text>
<text text-anchor="start" x="495.5" y="-196.3" font-family="Times,serif" font-size="14.00">created_at :datetime(6)</text>
<text text-anchor="start" x="495.5" y="-181.3" font-family="Times,serif" font-size="14.00">updated_at :datetime(6)</text>
</g>
<!-- ClassOfStudent&#45;&gt;Teacher -->
<g id="edge3" class="edge">
<title>ClassOfStudent&#45;&gt;Teacher</title>
<path fill="none" stroke="#64420d" d="M576.61,-1073.13C575.72,-998 574.5,-875.05 574.5,-769 574.5,-769 574.5,-769 574.5,-601.5 574.5,-498.17 577.32,-378.49 579.38,-304.76"/>
<polygon fill="#64420d" stroke="#64420d" points="576.61,-1073.41 572.23,-1083.46 576.67,-1078.41 576.73,-1083.41 576.73,-1083.41 576.73,-1083.41 576.67,-1078.41 581.23,-1083.36 576.61,-1073.41 576.61,-1073.41"/>
<polygon fill="#64420d" stroke="#64420d" points="579.38,-304.66 584.16,-294.79 579.52,-299.66 579.66,-294.67 579.66,-294.67 579.66,-294.67 579.52,-299.66 575.16,-294.54 579.38,-304.66 579.38,-304.66"/>
</g>
<!-- Classroom -->
<g id="node6" class="node">
<title>Classroom</title>
<path fill="none" stroke="black" d="M701.5,-1098.5C701.5,-1098.5 865.5,-1098.5 865.5,-1098.5 871.5,-1098.5 877.5,-1104.5 877.5,-1110.5 877.5,-1110.5 877.5,-1177.5 877.5,-1177.5 877.5,-1183.5 871.5,-1189.5 865.5,-1189.5 865.5,-1189.5 701.5,-1189.5 701.5,-1189.5 695.5,-1189.5 689.5,-1183.5 689.5,-1177.5 689.5,-1177.5 689.5,-1110.5 689.5,-1110.5 689.5,-1104.5 695.5,-1098.5 701.5,-1098.5"/>
<text text-anchor="middle" x="783.5" y="-1174.3" font-family="Times,serif" font-size="14.00">Classroom</text>
<polyline fill="none" stroke="black" points="689.5,-1166.5 877.5,-1166.5 "/>
<text text-anchor="start" x="697.5" y="-1151.3" font-family="Times,serif" font-size="14.00">id :integer</text>
<text text-anchor="start" x="697.5" y="-1136.3" font-family="Times,serif" font-size="14.00">number :integer</text>
<text text-anchor="start" x="697.5" y="-1121.3" font-family="Times,serif" font-size="14.00">created_at :datetime(6)</text>
<text text-anchor="start" x="697.5" y="-1106.3" font-family="Times,serif" font-size="14.00">updated_at :datetime(6)</text>
</g>
<!-- Classroom&#45;&gt;Lesson -->
<g id="edge6" class="edge">
<title>Classroom&#45;&gt;Lesson</title>
<path fill="none" stroke="#59b2bc" d="M783.5,-1088.28C783.5,-1078.39 783.5,-1067.81 783.5,-1057.11"/>
<polygon fill="#59b2bc" stroke="#59b2bc" points="783.5,-1088.45 779,-1098.45 783.5,-1093.45 783.5,-1098.45 783.5,-1098.45 783.5,-1098.45 783.5,-1093.45 788,-1098.45 783.5,-1088.45 783.5,-1088.45"/>
<polygon fill="#59b2bc" stroke="#59b2bc" points="783.5,-1056.82 788,-1046.82 783.5,-1051.82 783.5,-1046.82 783.5,-1046.82 783.5,-1046.82 783.5,-1051.82 779,-1046.82 783.5,-1056.82 783.5,-1056.82"/>
</g>
<!-- Course -->
<g id="node7" class="node">
<title>Course</title>
<path fill="none" stroke="black" d="M907.5,-1098.5C907.5,-1098.5 1071.5,-1098.5 1071.5,-1098.5 1077.5,-1098.5 1083.5,-1104.5 1083.5,-1110.5 1083.5,-1110.5 1083.5,-1177.5 1083.5,-1177.5 1083.5,-1183.5 1077.5,-1189.5 1071.5,-1189.5 1071.5,-1189.5 907.5,-1189.5 907.5,-1189.5 901.5,-1189.5 895.5,-1183.5 895.5,-1177.5 895.5,-1177.5 895.5,-1110.5 895.5,-1110.5 895.5,-1104.5 901.5,-1098.5 907.5,-1098.5"/>
<text text-anchor="middle" x="989.5" y="-1174.3" font-family="Times,serif" font-size="14.00">Course</text>
<polyline fill="none" stroke="black" points="895.5,-1166.5 1083.5,-1166.5 "/>
<text text-anchor="start" x="903.5" y="-1151.3" font-family="Times,serif" font-size="14.00">id :integer</text>
<text text-anchor="start" x="903.5" y="-1136.3" font-family="Times,serif" font-size="14.00">name :varchar</text>
<text text-anchor="start" x="903.5" y="-1121.3" font-family="Times,serif" font-size="14.00">created_at :datetime(6)</text>
<text text-anchor="start" x="903.5" y="-1106.3" font-family="Times,serif" font-size="14.00">updated_at :datetime(6)</text>
</g>
<!-- Course&#45;&gt;Lesson -->
<g id="edge8" class="edge">
<title>Course&#45;&gt;Lesson</title>
<path fill="none" stroke="#996688" d="M932.72,-1091.73C919.56,-1079.85 905.13,-1066.82 890.58,-1053.69"/>
<polygon fill="#996688" stroke="#996688" points="932.74,-1091.75 937.14,-1101.79 936.45,-1095.1 940.16,-1098.45 940.16,-1098.45 940.16,-1098.45 936.45,-1095.1 943.17,-1095.11 932.74,-1091.75 932.74,-1091.75"/>
<polygon fill="#996688" stroke="#996688" points="890.4,-1053.52 885.99,-1043.48 886.69,-1050.17 882.98,-1046.82 882.98,-1046.82 882.98,-1046.82 886.69,-1050.17 879.96,-1050.16 890.4,-1053.52 890.4,-1053.52"/>
</g>
<!-- StudentGrade -->
<g id="node11" class="node">
<title>StudentGrade</title>
<path fill="none" stroke="black" d="M743.5,-331.5C743.5,-331.5 907.5,-331.5 907.5,-331.5 913.5,-331.5 919.5,-337.5 919.5,-343.5 919.5,-343.5 919.5,-485.5 919.5,-485.5 919.5,-491.5 913.5,-497.5 907.5,-497.5 907.5,-497.5 743.5,-497.5 743.5,-497.5 737.5,-497.5 731.5,-491.5 731.5,-485.5 731.5,-485.5 731.5,-343.5 731.5,-343.5 731.5,-337.5 737.5,-331.5 743.5,-331.5"/>
<text text-anchor="middle" x="825.5" y="-482.3" font-family="Times,serif" font-size="14.00">StudentGrade</text>
<polyline fill="none" stroke="black" points="731.5,-474.5 919.5,-474.5 "/>
<text text-anchor="start" x="739.5" y="-459.3" font-family="Times,serif" font-size="14.00">id :integer</text>
<text text-anchor="start" x="739.5" y="-444.3" font-family="Times,serif" font-size="14.00">grade :float</text>
<text text-anchor="start" x="739.5" y="-429.3" font-family="Times,serif" font-size="14.00">date :datetime(6)</text>
<text text-anchor="start" x="739.5" y="-414.3" font-family="Times,serif" font-size="14.00">teacher_id :integer</text>
<text text-anchor="start" x="739.5" y="-399.3" font-family="Times,serif" font-size="14.00">student_id :integer</text>
<text text-anchor="start" x="739.5" y="-384.3" font-family="Times,serif" font-size="14.00">course_id :integer</text>
<text text-anchor="start" x="739.5" y="-369.3" font-family="Times,serif" font-size="14.00">test_id :integer</text>
<text text-anchor="start" x="739.5" y="-354.3" font-family="Times,serif" font-size="14.00">created_at :datetime(6)</text>
<text text-anchor="start" x="739.5" y="-339.3" font-family="Times,serif" font-size="14.00">updated_at :datetime(6)</text>
</g>
<!-- Course&#45;&gt;StudentGrade -->
<g id="edge7" class="edge">
<title>Course&#45;&gt;StudentGrade</title>
<path fill="none" stroke="#ece947" d="M989.49,-1088.08C987.79,-978.92 975.49,-728.46 902.5,-534 899.04,-524.78 894.77,-515.54 890.04,-506.52"/>
<polygon fill="#ece947" stroke="#ece947" points="989.49,-1088.2 985.12,-1098.25 989.55,-1093.2 989.62,-1098.19 989.62,-1098.19 989.62,-1098.19 989.55,-1093.2 994.12,-1098.14 989.49,-1088.2 989.49,-1088.2"/>
<polygon fill="#ece947" stroke="#ece947" points="889.95,-506.35 889.11,-495.41 887.55,-501.96 885.16,-497.57 885.16,-497.57 885.16,-497.57 887.55,-501.96 881.21,-499.72 889.95,-506.35 889.95,-506.35"/>
</g>
<!-- Presence -->
<g id="node9" class="node">
<title>Presence</title>
<path fill="none" stroke="black" d="M703.5,-707.5C703.5,-707.5 867.5,-707.5 867.5,-707.5 873.5,-707.5 879.5,-713.5 879.5,-719.5 879.5,-719.5 879.5,-816.5 879.5,-816.5 879.5,-822.5 873.5,-828.5 867.5,-828.5 867.5,-828.5 703.5,-828.5 703.5,-828.5 697.5,-828.5 691.5,-822.5 691.5,-816.5 691.5,-816.5 691.5,-719.5 691.5,-719.5 691.5,-713.5 697.5,-707.5 703.5,-707.5"/>
<text text-anchor="middle" x="785.5" y="-813.3" font-family="Times,serif" font-size="14.00">Presence</text>
<polyline fill="none" stroke="black" points="691.5,-805.5 879.5,-805.5 "/>
<text text-anchor="start" x="699.5" y="-790.3" font-family="Times,serif" font-size="14.00">id :integer</text>
<text text-anchor="start" x="699.5" y="-775.3" font-family="Times,serif" font-size="14.00">isPresent :boolean</text>
<text text-anchor="start" x="699.5" y="-760.3" font-family="Times,serif" font-size="14.00">student_id :integer</text>
<text text-anchor="start" x="699.5" y="-745.3" font-family="Times,serif" font-size="14.00">lesson_id :integer</text>
<text text-anchor="start" x="699.5" y="-730.3" font-family="Times,serif" font-size="14.00">created_at :datetime(6)</text>
<text text-anchor="start" x="699.5" y="-715.3" font-family="Times,serif" font-size="14.00">updated_at :datetime(6)</text>
</g>
<!-- Lesson&#45;&gt;Presence -->
<g id="edge11" class="edge">
<title>Lesson&#45;&gt;Presence</title>
<path fill="none" stroke="#763ffb" d="M784.57,-855.06C784.63,-849.56 784.69,-844.09 784.75,-838.73"/>
<polygon fill="#763ffb" stroke="#763ffb" points="784.57,-855.27 779.97,-865.22 784.52,-860.27 784.46,-865.27 784.46,-865.27 784.46,-865.27 784.52,-860.27 788.96,-865.32 784.57,-855.27 784.57,-855.27"/>
<polygon fill="#763ffb" stroke="#763ffb" points="784.75,-838.58 789.36,-828.63 784.81,-833.58 784.86,-828.58 784.86,-828.58 784.86,-828.58 784.81,-833.58 780.36,-828.53 784.75,-838.58 784.75,-838.58"/>
</g>
<!-- Lesson&#45;&gt;Teacher -->
<g id="edge9" class="edge">
<title>Lesson&#45;&gt;Teacher</title>
<path fill="none" stroke="#546f55" d="M697.44,-856.73C691.81,-847.7 686.72,-838.4 682.5,-829 640.79,-736.11 604.11,-440.99 588.93,-304.93"/>
<polygon fill="#546f55" stroke="#546f55" points="697.55,-856.9 699.2,-867.75 700.26,-861.1 702.98,-865.3 702.98,-865.3 702.98,-865.3 700.26,-861.1 706.76,-862.86 697.55,-856.9 697.55,-856.9"/>
<polygon fill="#546f55" stroke="#546f55" points="588.89,-304.57 592.26,-294.13 588.34,-299.6 587.79,-294.63 587.79,-294.63 587.79,-294.63 588.34,-299.6 583.31,-295.12 588.89,-304.57 588.89,-304.57"/>
</g>
<!-- Test -->
<g id="node13" class="node">
<title>Test</title>
<path fill="none" stroke="black" d="M804.5,-181C804.5,-181 968.5,-181 968.5,-181 974.5,-181 980.5,-187 980.5,-193 980.5,-193 980.5,-275 980.5,-275 980.5,-281 974.5,-287 968.5,-287 968.5,-287 804.5,-287 804.5,-287 798.5,-287 792.5,-281 792.5,-275 792.5,-275 792.5,-193 792.5,-193 792.5,-187 798.5,-181 804.5,-181"/>
<text text-anchor="middle" x="886.5" y="-271.8" font-family="Times,serif" font-size="14.00">Test</text>
<polyline fill="none" stroke="black" points="792.5,-264 980.5,-264 "/>
<text text-anchor="start" x="800.5" y="-248.8" font-family="Times,serif" font-size="14.00">id :integer</text>
<text text-anchor="start" x="800.5" y="-233.8" font-family="Times,serif" font-size="14.00">name :varchar</text>
<text text-anchor="start" x="800.5" y="-218.8" font-family="Times,serif" font-size="14.00">description :text</text>
<text text-anchor="start" x="800.5" y="-203.8" font-family="Times,serif" font-size="14.00">created_at :datetime(6)</text>
<text text-anchor="start" x="800.5" y="-188.8" font-family="Times,serif" font-size="14.00">updated_at :datetime(6)</text>
</g>
<!-- Lesson&#45;&gt;Test -->
<g id="edge10" class="edge">
<title>Lesson&#45;&gt;Test</title>
<path fill="none" stroke="#21351c" d="M873.68,-856.91C879.34,-847.86 884.4,-838.51 888.5,-829 976.5,-625.14 973.96,-548.34 928.5,-331 926.08,-319.45 922.2,-307.6 917.74,-296.33"/>
<polygon fill="#21351c" stroke="#21351c" points="873.55,-857.11 864.31,-863.02 870.82,-861.29 868.08,-865.48 868.08,-865.48 868.08,-865.48 870.82,-861.29 871.85,-867.94 873.55,-857.11 873.55,-857.11"/>
<polygon fill="#21351c" stroke="#21351c" points="917.71,-296.26 918.04,-285.3 915.8,-291.64 913.88,-287.02 913.88,-287.02 913.88,-287.02 915.8,-291.64 909.73,-288.74 917.71,-296.26 917.71,-296.26"/>
</g>
<!-- Presence&#45;&gt;Student -->
<g id="edge12" class="edge">
<title>Presence&#45;&gt;Student</title>
<path fill="none" stroke="#5f4655" d="M785.93,-696.92C785.96,-691.6 785.99,-686.22 786.03,-680.87"/>
<polygon fill="#5f4655" stroke="#5f4655" points="785.93,-697.05 781.37,-707.02 785.9,-702.05 785.87,-707.05 785.87,-707.05 785.87,-707.05 785.9,-702.05 790.37,-707.07 785.93,-697.05 785.93,-697.05"/>
<polygon fill="#5f4655" stroke="#5f4655" points="786.03,-680.62 790.59,-670.65 786.06,-675.62 786.09,-670.62 786.09,-670.62 786.09,-670.62 786.06,-675.62 781.59,-670.6 786.03,-680.62 786.03,-680.62"/>
</g>
<!-- Student&#45;&gt;StudentGrade -->
<g id="edge14" class="edge">
<title>Student&#45;&gt;StudentGrade</title>
<path fill="none" stroke="#fe7123" d="M802.65,-524.5C803.8,-518.99 804.97,-513.4 806.14,-507.82"/>
<polygon fill="#fe7123" stroke="#fe7123" points="802.63,-524.56 796.18,-533.43 801.61,-529.46 800.58,-534.35 800.58,-534.35 800.58,-534.35 801.61,-529.46 804.98,-535.27 802.63,-524.56 802.63,-524.56"/>
<polygon fill="#fe7123" stroke="#fe7123" points="806.19,-507.58 812.65,-498.72 807.22,-502.69 808.25,-497.79 808.25,-497.79 808.25,-497.79 807.22,-502.69 803.84,-496.87 806.19,-507.58 806.19,-507.58"/>
</g>
<!-- User -->
<g id="node14" class="node">
<title>User</title>
<path fill="none" stroke="black" d="M554.5,-0.5C554.5,-0.5 730.5,-0.5 730.5,-0.5 736.5,-0.5 742.5,-6.5 742.5,-12.5 742.5,-12.5 742.5,-124.5 742.5,-124.5 742.5,-130.5 736.5,-136.5 730.5,-136.5 730.5,-136.5 554.5,-136.5 554.5,-136.5 548.5,-136.5 542.5,-130.5 542.5,-124.5 542.5,-124.5 542.5,-12.5 542.5,-12.5 542.5,-6.5 548.5,-0.5 554.5,-0.5"/>
<text text-anchor="middle" x="642.5" y="-121.3" font-family="Times,serif" font-size="14.00">User</text>
<polyline fill="none" stroke="black" points="542.5,-113.5 742.5,-113.5 "/>
<text text-anchor="start" x="550.5" y="-98.3" font-family="Times,serif" font-size="14.00">id :integer</text>
<text text-anchor="start" x="550.5" y="-83.3" font-family="Times,serif" font-size="14.00">login :varchar</text>
<text text-anchor="start" x="550.5" y="-68.3" font-family="Times,serif" font-size="14.00">password :varchar</text>
<text text-anchor="start" x="550.5" y="-53.3" font-family="Times,serif" font-size="14.00">email :varchar</text>
<text text-anchor="start" x="550.5" y="-38.3" font-family="Times,serif" font-size="14.00">created_at :datetime(6)</text>
<text text-anchor="start" x="550.5" y="-23.3" font-family="Times,serif" font-size="14.00">updated_at :datetime(6)</text>
<text text-anchor="start" x="550.5" y="-8.3" font-family="Times,serif" font-size="14.00">password_digest :varchar</text>
</g>
<!-- Student&#45;&gt;User -->
<g id="edge13" class="edge">
<title>Student&#45;&gt;User</title>
<path fill="none" stroke="#9957a4" d="M734.45,-525.42C729.83,-516.45 725.7,-507.2 722.5,-498 674.67,-360.66 720.61,-313.87 684.5,-173 682.24,-164.17 679.39,-155.1 676.25,-146.16"/>
<polygon fill="#9957a4" stroke="#9957a4" points="734.48,-525.49 735.24,-536.43 736.84,-529.89 739.21,-534.3 739.21,-534.3 739.21,-534.3 736.84,-529.89 743.17,-532.17 734.48,-525.49 734.48,-525.49"/>
<polygon fill="#9957a4" stroke="#9957a4" points="676.16,-145.94 676.96,-135 674.45,-141.24 672.74,-136.54 672.74,-136.54 672.74,-136.54 674.45,-141.24 668.51,-138.08 676.16,-145.94 676.16,-145.94"/>
</g>
<!-- StudentGrade&#45;&gt;Teacher -->
<g id="edge15" class="edge">
<title>StudentGrade&#45;&gt;Teacher</title>
<path fill="none" stroke="#2662d1" d="M722.93,-338.46C705.7,-325.86 687.95,-312.87 671.09,-300.54"/>
<polygon fill="#2662d1" stroke="#2662d1" points="723.09,-338.58 728.51,-348.12 727.13,-341.54 731.16,-344.49 731.16,-344.49 731.16,-344.49 727.13,-341.54 733.82,-340.86 723.09,-338.58 723.09,-338.58"/>
<polygon fill="#2662d1" stroke="#2662d1" points="670.96,-300.44 665.54,-290.91 666.92,-297.49 662.89,-294.54 662.89,-294.54 662.89,-294.54 666.92,-297.49 660.23,-298.17 670.96,-300.44 670.96,-300.44"/>
</g>
<!-- StudentGrade&#45;&gt;Test -->
<g id="edge16" class="edge">
<title>StudentGrade&#45;&gt;Test</title>
<path fill="none" stroke="#983284" d="M856.84,-321.79C859.73,-313.35 862.6,-304.94 865.36,-296.86"/>
<polygon fill="#983284" stroke="#983284" points="856.82,-321.84 849.33,-329.85 855.21,-326.57 853.59,-331.3 853.59,-331.3 853.59,-331.3 855.21,-326.57 857.85,-332.76 856.82,-321.84 856.82,-321.84"/>
<polygon fill="#983284" stroke="#983284" points="865.43,-296.66 872.92,-288.65 867.05,-291.93 868.66,-287.19 868.66,-287.19 868.66,-287.19 867.05,-291.93 864.41,-285.74 865.43,-296.66 865.43,-296.66"/>
</g>
<!-- Teacher&#45;&gt;User -->
<g id="edge17" class="edge">
<title>Teacher&#45;&gt;User</title>
<path fill="none" stroke="#114108" d="M607.43,-163.49C609.56,-157.78 611.72,-152 613.87,-146.25"/>
<polygon fill="#114108" stroke="#114108" points="607.36,-163.68 599.65,-171.47 605.62,-168.36 603.87,-173.05 603.87,-173.05 603.87,-173.05 605.62,-168.36 608.08,-174.62 607.36,-163.68 607.36,-163.68"/>
<polygon fill="#114108" stroke="#114108" points="613.96,-145.99 621.67,-138.2 615.71,-141.31 617.46,-136.62 617.46,-136.62 617.46,-136.62 615.71,-141.31 613.24,-135.05 613.96,-145.99 613.96,-145.99"/>
</g>
</g>
</svg>
