<?xml version="1.0" encoding="UTF-8" standalone="no"?>
<!DOCTYPE svg PUBLIC "-//W3C//DTD SVG 1.1//EN"
 "http://www.w3.org/Graphics/SVG/1.1/DTD/svg11.dtd">
<!-- Generated by graphviz version 2.43.0 (0)
 -->
<!-- Title: models_diagram Pages: 1 -->
<svg width="1301pt" height="1228pt"
 viewBox="0.00 0.00 1301.04 1228.00" xmlns="http://www.w3.org/2000/svg" xmlns:xlink="http://www.w3.org/1999/xlink">
<g id="graph0" class="graph" transform="scale(1 1) rotate(0) translate(4 1224)">
<title>models_diagram</title>
<polygon fill="transparent" stroke="transparent" points="-4,4 -4,-1224 1297.04,-1224 1297.04,4 -4,4"/>
<!-- _diagram_info -->
<g id="node1" class="node">
<title>_diagram_info</title>
<text text-anchor="start" x="8" y="-1183.6" font-family="Times,serif" font-size="13.00">Models diagram</text>
<text text-anchor="start" x="8" y="-1169.6" font-family="Times,serif" font-size="13.00">Date: Jun 13 2022 &#45; 21:50</text>
<text text-anchor="start" x="8" y="-1155.6" font-family="Times,serif" font-size="13.00">Migration version: 20220605150413</text>
<text text-anchor="start" x="8" y="-1141.6" font-family="Times,serif" font-size="13.00">Generated by RailRoady 1.6.0</text>
<text text-anchor="start" x="8" y="-1127.6" font-family="Times,serif" font-size="13.00">http://railroady.prestonlee.com</text>
</g>
<!-- Animal -->
<g id="node2" class="node">
<title>Animal</title>
<path fill="none" stroke="black" d="M289.5,-1106C289.5,-1106 453.5,-1106 453.5,-1106 459.5,-1106 465.5,-1112 465.5,-1118 465.5,-1118 465.5,-1200 465.5,-1200 465.5,-1206 459.5,-1212 453.5,-1212 453.5,-1212 289.5,-1212 289.5,-1212 283.5,-1212 277.5,-1206 277.5,-1200 277.5,-1200 277.5,-1118 277.5,-1118 277.5,-1112 283.5,-1106 289.5,-1106"/>
<text text-anchor="middle" x="371.5" y="-1196.8" font-family="Times,serif" font-size="14.00">Animal</text>
<polyline fill="none" stroke="black" points="277.5,-1189 465.5,-1189 "/>
<text text-anchor="start" x="285.5" y="-1173.8" font-family="Times,serif" font-size="14.00">id :integer</text>
<text text-anchor="start" x="285.5" y="-1158.8" font-family="Times,serif" font-size="14.00">code :varchar</text>
<text text-anchor="start" x="285.5" y="-1143.8" font-family="Times,serif" font-size="14.00">animal_type_id :integer</text>
<text text-anchor="start" x="285.5" y="-1128.8" font-family="Times,serif" font-size="14.00">created_at :datetime(6)</text>
<text text-anchor="start" x="285.5" y="-1113.8" font-family="Times,serif" font-size="14.00">updated_at :datetime(6)</text>
</g>
<!-- AnimalType -->
<g id="node3" class="node">
<title>AnimalType</title>
<path fill="none" stroke="black" d="M289.5,-918C289.5,-918 453.5,-918 453.5,-918 459.5,-918 465.5,-924 465.5,-930 465.5,-930 465.5,-1012 465.5,-1012 465.5,-1018 459.5,-1024 453.5,-1024 453.5,-1024 289.5,-1024 289.5,-1024 283.5,-1024 277.5,-1018 277.5,-1012 277.5,-1012 277.5,-930 277.5,-930 277.5,-924 283.5,-918 289.5,-918"/>
<text text-anchor="middle" x="371.5" y="-1008.8" font-family="Times,serif" font-size="14.00">AnimalType</text>
<polyline fill="none" stroke="black" points="277.5,-1001 465.5,-1001 "/>
<text text-anchor="start" x="285.5" y="-985.8" font-family="Times,serif" font-size="14.00">id :integer</text>
<text text-anchor="start" x="285.5" y="-970.8" font-family="Times,serif" font-size="14.00">species :varchar</text>
<text text-anchor="start" x="285.5" y="-955.8" font-family="Times,serif" font-size="14.00">group :varchar</text>
<text text-anchor="start" x="285.5" y="-940.8" font-family="Times,serif" font-size="14.00">created_at :datetime(6)</text>
<text text-anchor="start" x="285.5" y="-925.8" font-family="Times,serif" font-size="14.00">updated_at :datetime(6)</text>
</g>
<!-- Animal&#45;&gt;AnimalType -->
<g id="edge1" class="edge">
<title>Animal&#45;&gt;AnimalType</title>
<path fill="none" stroke="#1c8ab5" d="M371.5,-1095.61C371.5,-1075.88 371.5,-1054.08 371.5,-1034.34"/>
<polygon fill="#1c8ab5" stroke="#1c8ab5" points="371.5,-1095.69 367,-1105.69 371.5,-1100.69 371.5,-1105.69 371.5,-1105.69 371.5,-1105.69 371.5,-1100.69 376,-1105.69 371.5,-1095.69 371.5,-1095.69"/>
<polygon fill="#1c8ab5" stroke="#1c8ab5" points="371.5,-1034.24 376,-1024.24 371.5,-1029.24 371.5,-1024.24 371.5,-1024.24 371.5,-1024.24 371.5,-1029.24 367,-1024.24 371.5,-1034.24 371.5,-1034.24"/>
</g>
<!-- Lesson -->
<g id="node8" class="node">
<title>Lesson</title>
<path fill="none" stroke="black" d="M688,-880.5C688,-880.5 879,-880.5 879,-880.5 885,-880.5 891,-886.5 891,-892.5 891,-892.5 891,-1049.5 891,-1049.5 891,-1055.5 885,-1061.5 879,-1061.5 879,-1061.5 688,-1061.5 688,-1061.5 682,-1061.5 676,-1055.5 676,-1049.5 676,-1049.5 676,-892.5 676,-892.5 676,-886.5 682,-880.5 688,-880.5"/>
<text text-anchor="middle" x="783.5" y="-1046.3" font-family="Times,serif" font-size="14.00">Lesson</text>
<polyline fill="none" stroke="black" points="676,-1038.5 891,-1038.5 "/>
<text text-anchor="start" x="684" y="-1023.3" font-family="Times,serif" font-size="14.00">id :integer</text>
<text text-anchor="start" x="684" y="-1008.3" font-family="Times,serif" font-size="14.00">date :datetime(6)</text>
<text text-anchor="start" x="684" y="-993.3" font-family="Times,serif" font-size="14.00">teacher_id :integer</text>
<text text-anchor="start" x="684" y="-978.3" font-family="Times,serif" font-size="14.00">class_of_student_id :integer</text>
<text text-anchor="start" x="684" y="-963.3" font-family="Times,serif" font-size="14.00">animal_id :integer</text>
<text text-anchor="start" x="684" y="-948.3" font-family="Times,serif" font-size="14.00">test_id :integer</text>
<text text-anchor="start" x="684" y="-933.3" font-family="Times,serif" font-size="14.00">classroom_id :integer</text>
<text text-anchor="start" x="684" y="-918.3" font-family="Times,serif" font-size="14.00">course_id :integer</text>
<text text-anchor="start" x="684" y="-903.3" font-family="Times,serif" font-size="14.00">created_at :datetime(6)</text>
<text text-anchor="start" x="684" y="-888.3" font-family="Times,serif" font-size="14.00">updated_at :datetime(6)</text>
</g>
<!-- Animal&#45;&gt;Lesson -->
<g id="edge2" class="edge">
<title>Animal&#45;&gt;Lesson</title>
<path fill="none" stroke="#97a959" d="M468.24,-1101.13C470.34,-1100.07 472.43,-1099.02 474.5,-1098 536.42,-1067.53 607.62,-1038.13 666.05,-1015.41"/>
<polygon fill="#97a959" stroke="#97a959" points="467.86,-1101.33 456.91,-1101.94 463.42,-1103.63 458.99,-1105.93 458.99,-1105.93 458.99,-1105.93 463.42,-1103.63 461.06,-1109.93 467.86,-1101.33 467.86,-1101.33"/>
<polygon fill="#97a959" stroke="#97a959" points="666.36,-1015.29 677.31,-1015.88 671.03,-1013.48 675.69,-1011.68 675.69,-1011.68 675.69,-1011.68 671.03,-1013.48 674.06,-1007.48 666.36,-1015.29 666.36,-1015.29"/>
</g>
<!-- ApplicationRecord -->
<g id="node4" class="node">
<title>ApplicationRecord</title>
<ellipse fill="none" stroke="black" cx="1197.5" cy="-1159" rx="95.58" ry="18"/>
<text text-anchor="middle" x="1197.5" y="-1155.3" font-family="Times,serif" font-size="14.00">ApplicationRecord</text>
</g>
<!-- ClassOfStudent -->
<g id="node5" class="node">
<title>ClassOfStudent</title>
<path fill="none" stroke="black" d="M495.5,-1098.5C495.5,-1098.5 659.5,-1098.5 659.5,-1098.5 665.5,-1098.5 671.5,-1104.5 671.5,-1110.5 671.5,-1110.5 671.5,-1207.5 671.5,-1207.5 671.5,-1213.5 665.5,-1219.5 659.5,-1219.5 659.5,-1219.5 495.5,-1219.5 495.5,-1219.5 489.5,-1219.5 483.5,-1213.5 483.5,-1207.5 483.5,-1207.5 483.5,-1110.5 483.5,-1110.5 483.5,-1104.5 489.5,-1098.5 495.5,-1098.5"/>
<text text-anchor="middle" x="577.5" y="-1204.3" font-family="Times,serif" font-size="14.00">ClassOfStudent</text>
<polyline fill="none" stroke="black" points="483.5,-1196.5 671.5,-1196.5 "/>
<text text-anchor="start" x="491.5" y="-1181.3" font-family="Times,serif" font-size="14.00">id :integer</text>
<text text-anchor="start" x="491.5" y="-1166.3" font-family="Times,serif" font-size="14.00">symbol :varchar</text>
<text text-anchor="start" x="491.5" y="-1151.3" font-family="Times,serif" font-size="14.00">yearOfStart :integer</text>
<text text-anchor="start" x="491.5" y="-1136.3" font-family="Times,serif" font-size="14.00">teacher_id :integer</text>
<text text-anchor="start" x="491.5" y="-1121.3" font-family="Times,serif" font-size="14.00">created_at :datetime(6)</text>
<text text-anchor="start" x="491.5" y="-1106.3" font-family="Times,serif" font-size="14.00">updated_at :datetime(6)</text>
</g>
<!-- ClassOfStudent&#45;&gt;Lesson -->
<g id="edge4" class="edge">
<title>ClassOfStudent&#45;&gt;Lesson</title>
<path fill="none" stroke="#101fbd" d="M651.21,-1091.45C659.46,-1084 667.99,-1076.3 676.55,-1068.57"/>
<polygon fill="#101fbd" stroke="#101fbd" points="650.95,-1091.68 640.51,-1095.04 647.24,-1095.03 643.53,-1098.38 643.53,-1098.38 643.53,-1098.38 647.24,-1095.03 646.55,-1101.72 650.95,-1091.68 650.95,-1091.68"/>
<polygon fill="#101fbd" stroke="#101fbd" points="676.65,-1068.47 687.09,-1065.11 680.37,-1065.12 684.08,-1061.77 684.08,-1061.77 684.08,-1061.77 680.37,-1065.12 681.06,-1058.43 676.65,-1068.47 676.65,-1068.47"/>
</g>
<!-- Student -->
<g id="node10" class="node">
<title>Student</title>
<path fill="none" stroke="black" d="M691,-549.5C691,-549.5 882,-549.5 882,-549.5 888,-549.5 894,-555.5 894,-561.5 894,-561.5 894,-673.5 894,-673.5 894,-679.5 888,-685.5 882,-685.5 882,-685.5 691,-685.5 691,-685.5 685,-685.5 679,-679.5 679,-673.5 679,-673.5 679,-561.5 679,-561.5 679,-555.5 685,-549.5 691,-549.5"/>
<text text-anchor="middle" x="786.5" y="-670.3" font-family="Times,serif" font-size="14.00">Student</text>
<polyline fill="none" stroke="black" points="679,-662.5 894,-662.5 "/>
<text text-anchor="start" x="687" y="-647.3" font-family="Times,serif" font-size="14.00">id :integer</text>
<text text-anchor="start" x="687" y="-632.3" font-family="Times,serif" font-size="14.00">firstName :varchar</text>
<text text-anchor="start" x="687" y="-617.3" font-family="Times,serif" font-size="14.00">lastName :varchar</text>
<text text-anchor="start" x="687" y="-602.3" font-family="Times,serif" font-size="14.00">user_id :integer</text>
<text text-anchor="start" x="687" y="-587.3" font-family="Times,serif" font-size="14.00">class_of_student_id :integer</text>
<text text-anchor="start" x="687" y="-572.3" font-family="Times,serif" font-size="14.00">created_at :datetime(6)</text>
<text text-anchor="start" x="687" y="-557.3" font-family="Times,serif" font-size="14.00">updated_at :datetime(6)</text>
</g>
<!-- ClassOfStudent&#45;&gt;Student -->
<g id="edge5" class="edge">
<title>ClassOfStudent&#45;&gt;Student</title>
<path fill="none" stroke="#4f2d97" d="M589.47,-1088.44C608.59,-981.98 647.44,-784.38 682.5,-722 688.05,-712.12 694.81,-702.56 702.19,-693.49"/>
<polygon fill="#4f2d97" stroke="#4f2d97" points="589.44,-1088.61 583.25,-1097.66 588.56,-1093.53 587.68,-1098.45 587.68,-1098.45 587.68,-1098.45 588.56,-1093.53 592.11,-1099.24 589.44,-1088.61 589.44,-1088.61"/>
<polygon fill="#4f2d97" stroke="#4f2d97" points="702.37,-693.28 712.26,-688.56 705.6,-689.47 708.83,-685.65 708.83,-685.65 708.83,-685.65 705.6,-689.47 705.39,-682.74 702.37,-693.28 702.37,-693.28"/>
</g>
<!-- Teacher -->
<g id="node12" class="node">
<title>Teacher</title>
<path fill="none" stroke="black" d="M499.5,-188.5C499.5,-188.5 663.5,-188.5 663.5,-188.5 669.5,-188.5 675.5,-194.5 675.5,-200.5 675.5,-200.5 675.5,-297.5 675.5,-297.5 675.5,-303.5 669.5,-309.5 663.5,-309.5 663.5,-309.5 499.5,-309.5 499.5,-309.5 493.5,-309.5 487.5,-303.5 487.5,-297.5 487.5,-297.5 487.5,-200.5 487.5,-200.5 487.5,-194.5 493.5,-188.5 499.5,-188.5"/>
<text text-anchor="middle" x="581.5" y="-294.3" font-family="Times,serif" font-size="14.00">Teacher</text>
<polyline fill="none" stroke="black" points="487.5,-286.5 675.5,-286.5 "/>
<text text-anchor="start" x="495.5" y="-271.3" font-family="Times,serif" font-size="14.00">id :integer</text>
<text text-anchor="start" x="495.5" y="-256.3" font-family="Times,serif" font-size="14.00">firstName :varchar</text>
<text text-anchor="start" x="495.5" y="-241.3" font-family="Times,serif" font-size="14.00">lastName :varchar</text>
<text text-anchor="start" x="495.5" y="-226.3" font-family="Times,serif" font-size="14.00">user_id :integer</text>
<text text-anchor="start" x="495.5" y="-211.3" font-family="Times,serif" font-size="14.00">created_at :datetime(6)</text>
<text text-anchor="start" x="495.5" y="-196.3" font-family="Times,serif" font-size="14.00">updated_at :datetime(6)</text>
</g>
<!-- ClassOfStudent&#45;&gt;Teacher -->
<g id="edge3" class="edge">
<title>ClassOfStudent&#45;&gt;Teacher</title>
<path fill="none" stroke="#2fd18a" d="M576.61,-1088.13C575.72,-1013 574.5,-890.05 574.5,-784 574.5,-784 574.5,-784 574.5,-616.5 574.5,-513.17 577.32,-393.49 579.38,-319.76"/>
<polygon fill="#2fd18a" stroke="#2fd18a" points="576.61,-1088.41 572.23,-1098.46 576.67,-1093.41 576.73,-1098.41 576.73,-1098.41 576.73,-1098.41 576.67,-1093.41 581.23,-1098.36 576.61,-1088.41 576.61,-1088.41"/>
<polygon fill="#2fd18a" stroke="#2fd18a" points="579.38,-319.66 584.16,-309.79 579.52,-314.66 579.66,-309.67 579.66,-309.67 579.66,-309.67 579.52,-314.66 575.16,-309.54 579.38,-319.66 579.38,-319.66"/>
</g>
<!-- Classroom -->
<g id="node6" class="node">
<title>Classroom</title>
<path fill="none" stroke="black" d="M701.5,-1113.5C701.5,-1113.5 865.5,-1113.5 865.5,-1113.5 871.5,-1113.5 877.5,-1119.5 877.5,-1125.5 877.5,-1125.5 877.5,-1192.5 877.5,-1192.5 877.5,-1198.5 871.5,-1204.5 865.5,-1204.5 865.5,-1204.5 701.5,-1204.5 701.5,-1204.5 695.5,-1204.5 689.5,-1198.5 689.5,-1192.5 689.5,-1192.5 689.5,-1125.5 689.5,-1125.5 689.5,-1119.5 695.5,-1113.5 701.5,-1113.5"/>
<text text-anchor="middle" x="783.5" y="-1189.3" font-family="Times,serif" font-size="14.00">Classroom</text>
<polyline fill="none" stroke="black" points="689.5,-1181.5 877.5,-1181.5 "/>
<text text-anchor="start" x="697.5" y="-1166.3" font-family="Times,serif" font-size="14.00">id :integer</text>
<text text-anchor="start" x="697.5" y="-1151.3" font-family="Times,serif" font-size="14.00">number :integer</text>
<text text-anchor="start" x="697.5" y="-1136.3" font-family="Times,serif" font-size="14.00">created_at :datetime(6)</text>
<text text-anchor="start" x="697.5" y="-1121.3" font-family="Times,serif" font-size="14.00">updated_at :datetime(6)</text>
</g>
<!-- Classroom&#45;&gt;Lesson -->
<g id="edge6" class="edge">
<title>Classroom&#45;&gt;Lesson</title>
<path fill="none" stroke="#fe8c98" d="M783.5,-1103.28C783.5,-1093.39 783.5,-1082.81 783.5,-1072.11"/>
<polygon fill="#fe8c98" stroke="#fe8c98" points="783.5,-1103.45 779,-1113.45 783.5,-1108.45 783.5,-1113.45 783.5,-1113.45 783.5,-1113.45 783.5,-1108.45 788,-1113.45 783.5,-1103.45 783.5,-1103.45"/>
<polygon fill="#fe8c98" stroke="#fe8c98" points="783.5,-1071.82 788,-1061.82 783.5,-1066.82 783.5,-1061.82 783.5,-1061.82 783.5,-1061.82 783.5,-1066.82 779,-1061.82 783.5,-1071.82 783.5,-1071.82"/>
</g>
<!-- Course -->
<g id="node7" class="node">
<title>Course</title>
<path fill="none" stroke="black" d="M907.5,-1113.5C907.5,-1113.5 1071.5,-1113.5 1071.5,-1113.5 1077.5,-1113.5 1083.5,-1119.5 1083.5,-1125.5 1083.5,-1125.5 1083.5,-1192.5 1083.5,-1192.5 1083.5,-1198.5 1077.5,-1204.5 1071.5,-1204.5 1071.5,-1204.5 907.5,-1204.5 907.5,-1204.5 901.5,-1204.5 895.5,-1198.5 895.5,-1192.5 895.5,-1192.5 895.5,-1125.5 895.5,-1125.5 895.5,-1119.5 901.5,-1113.5 907.5,-1113.5"/>
<text text-anchor="middle" x="989.5" y="-1189.3" font-family="Times,serif" font-size="14.00">Course</text>
<polyline fill="none" stroke="black" points="895.5,-1181.5 1083.5,-1181.5 "/>
<text text-anchor="start" x="903.5" y="-1166.3" font-family="Times,serif" font-size="14.00">id :integer</text>
<text text-anchor="start" x="903.5" y="-1151.3" font-family="Times,serif" font-size="14.00">name :varchar</text>
<text text-anchor="start" x="903.5" y="-1136.3" font-family="Times,serif" font-size="14.00">created_at :datetime(6)</text>
<text text-anchor="start" x="903.5" y="-1121.3" font-family="Times,serif" font-size="14.00">updated_at :datetime(6)</text>
</g>
<!-- Course&#45;&gt;Lesson -->
<g id="edge8" class="edge">
<title>Course&#45;&gt;Lesson</title>
<path fill="none" stroke="#afc36a" d="M932.72,-1106.73C919.56,-1094.85 905.13,-1081.82 890.58,-1068.69"/>
<polygon fill="#afc36a" stroke="#afc36a" points="932.74,-1106.75 937.14,-1116.79 936.45,-1110.1 940.16,-1113.45 940.16,-1113.45 940.16,-1113.45 936.45,-1110.1 943.17,-1110.11 932.74,-1106.75 932.74,-1106.75"/>
<polygon fill="#afc36a" stroke="#afc36a" points="890.4,-1068.52 885.99,-1058.48 886.69,-1065.17 882.98,-1061.82 882.98,-1061.82 882.98,-1061.82 886.69,-1065.17 879.96,-1065.16 890.4,-1068.52 890.4,-1068.52"/>
</g>
<!-- StudentGrade -->
<g id="node11" class="node">
<title>StudentGrade</title>
<path fill="none" stroke="black" d="M743.5,-346.5C743.5,-346.5 907.5,-346.5 907.5,-346.5 913.5,-346.5 919.5,-352.5 919.5,-358.5 919.5,-358.5 919.5,-500.5 919.5,-500.5 919.5,-506.5 913.5,-512.5 907.5,-512.5 907.5,-512.5 743.5,-512.5 743.5,-512.5 737.5,-512.5 731.5,-506.5 731.5,-500.5 731.5,-500.5 731.5,-358.5 731.5,-358.5 731.5,-352.5 737.5,-346.5 743.5,-346.5"/>
<text text-anchor="middle" x="825.5" y="-497.3" font-family="Times,serif" font-size="14.00">StudentGrade</text>
<polyline fill="none" stroke="black" points="731.5,-489.5 919.5,-489.5 "/>
<text text-anchor="start" x="739.5" y="-474.3" font-family="Times,serif" font-size="14.00">id :integer</text>
<text text-anchor="start" x="739.5" y="-459.3" font-family="Times,serif" font-size="14.00">grade :float</text>
<text text-anchor="start" x="739.5" y="-444.3" font-family="Times,serif" font-size="14.00">date :datetime(6)</text>
<text text-anchor="start" x="739.5" y="-429.3" font-family="Times,serif" font-size="14.00">teacher_id :integer</text>
<text text-anchor="start" x="739.5" y="-414.3" font-family="Times,serif" font-size="14.00">student_id :integer</text>
<text text-anchor="start" x="739.5" y="-399.3" font-family="Times,serif" font-size="14.00">course_id :integer</text>
<text text-anchor="start" x="739.5" y="-384.3" font-family="Times,serif" font-size="14.00">test_id :integer</text>
<text text-anchor="start" x="739.5" y="-369.3" font-family="Times,serif" font-size="14.00">created_at :datetime(6)</text>
<text text-anchor="start" x="739.5" y="-354.3" font-family="Times,serif" font-size="14.00">updated_at :datetime(6)</text>
</g>
<!-- Course&#45;&gt;StudentGrade -->
<g id="edge7" class="edge">
<title>Course&#45;&gt;StudentGrade</title>
<path fill="none" stroke="#4ba81c" d="M989.49,-1103.08C987.79,-993.92 975.49,-743.46 902.5,-549 899.04,-539.78 894.77,-530.54 890.04,-521.52"/>
<polygon fill="#4ba81c" stroke="#4ba81c" points="989.49,-1103.2 985.12,-1113.25 989.55,-1108.2 989.62,-1113.19 989.62,-1113.19 989.62,-1113.19 989.55,-1108.2 994.12,-1113.14 989.49,-1103.2 989.49,-1103.2"/>
<polygon fill="#4ba81c" stroke="#4ba81c" points="889.95,-521.35 889.11,-510.41 887.55,-516.96 885.16,-512.57 885.16,-512.57 885.16,-512.57 887.55,-516.96 881.21,-514.72 889.95,-521.35 889.95,-521.35"/>
</g>
<!-- Presence -->
<g id="node9" class="node">
<title>Presence</title>
<path fill="none" stroke="black" d="M703.5,-722.5C703.5,-722.5 867.5,-722.5 867.5,-722.5 873.5,-722.5 879.5,-728.5 879.5,-734.5 879.5,-734.5 879.5,-831.5 879.5,-831.5 879.5,-837.5 873.5,-843.5 867.5,-843.5 867.5,-843.5 703.5,-843.5 703.5,-843.5 697.5,-843.5 691.5,-837.5 691.5,-831.5 691.5,-831.5 691.5,-734.5 691.5,-734.5 691.5,-728.5 697.5,-722.5 703.5,-722.5"/>
<text text-anchor="middle" x="785.5" y="-828.3" font-family="Times,serif" font-size="14.00">Presence</text>
<polyline fill="none" stroke="black" points="691.5,-820.5 879.5,-820.5 "/>
<text text-anchor="start" x="699.5" y="-805.3" font-family="Times,serif" font-size="14.00">id :integer</text>
<text text-anchor="start" x="699.5" y="-790.3" font-family="Times,serif" font-size="14.00">isPresent :boolean</text>
<text text-anchor="start" x="699.5" y="-775.3" font-family="Times,serif" font-size="14.00">student_id :integer</text>
<text text-anchor="start" x="699.5" y="-760.3" font-family="Times,serif" font-size="14.00">lesson_id :integer</text>
<text text-anchor="start" x="699.5" y="-745.3" font-family="Times,serif" font-size="14.00">created_at :datetime(6)</text>
<text text-anchor="start" x="699.5" y="-730.3" font-family="Times,serif" font-size="14.00">updated_at :datetime(6)</text>
</g>
<!-- Lesson&#45;&gt;Presence -->
<g id="edge11" class="edge">
<title>Lesson&#45;&gt;Presence</title>
<path fill="none" stroke="#0ebe67" d="M784.57,-870.06C784.63,-864.56 784.69,-859.09 784.75,-853.73"/>
<polygon fill="#0ebe67" stroke="#0ebe67" points="784.57,-870.27 779.97,-880.22 784.52,-875.27 784.46,-880.27 784.46,-880.27 784.46,-880.27 784.52,-875.27 788.96,-880.32 784.57,-870.27 784.57,-870.27"/>
<polygon fill="#0ebe67" stroke="#0ebe67" points="784.75,-853.58 789.36,-843.63 784.81,-848.58 784.86,-843.58 784.86,-843.58 784.86,-843.58 784.81,-848.58 780.36,-843.53 784.75,-853.58 784.75,-853.58"/>
</g>
<!-- Lesson&#45;&gt;Teacher -->
<g id="edge9" class="edge">
<title>Lesson&#45;&gt;Teacher</title>
<path fill="none" stroke="#f862f0" d="M697.44,-871.73C691.81,-862.7 686.72,-853.4 682.5,-844 640.79,-751.11 604.11,-455.99 588.93,-319.93"/>
<polygon fill="#f862f0" stroke="#f862f0" points="697.55,-871.9 699.2,-882.75 700.26,-876.1 702.98,-880.3 702.98,-880.3 702.98,-880.3 700.26,-876.1 706.76,-877.86 697.55,-871.9 697.55,-871.9"/>
<polygon fill="#f862f0" stroke="#f862f0" points="588.89,-319.57 592.26,-309.13 588.34,-314.6 587.79,-309.63 587.79,-309.63 587.79,-309.63 588.34,-314.6 583.31,-310.12 588.89,-319.57 588.89,-319.57"/>
</g>
<!-- Test -->
<g id="node13" class="node">
<title>Test</title>
<path fill="none" stroke="black" d="M804.5,-196C804.5,-196 968.5,-196 968.5,-196 974.5,-196 980.5,-202 980.5,-208 980.5,-208 980.5,-290 980.5,-290 980.5,-296 974.5,-302 968.5,-302 968.5,-302 804.5,-302 804.5,-302 798.5,-302 792.5,-296 792.5,-290 792.5,-290 792.5,-208 792.5,-208 792.5,-202 798.5,-196 804.5,-196"/>
<text text-anchor="middle" x="886.5" y="-286.8" font-family="Times,serif" font-size="14.00">Test</text>
<polyline fill="none" stroke="black" points="792.5,-279 980.5,-279 "/>
<text text-anchor="start" x="800.5" y="-263.8" font-family="Times,serif" font-size="14.00">id :integer</text>
<text text-anchor="start" x="800.5" y="-248.8" font-family="Times,serif" font-size="14.00">name :varchar</text>
<text text-anchor="start" x="800.5" y="-233.8" font-family="Times,serif" font-size="14.00">description :text</text>
<text text-anchor="start" x="800.5" y="-218.8" font-family="Times,serif" font-size="14.00">created_at :datetime(6)</text>
<text text-anchor="start" x="800.5" y="-203.8" font-family="Times,serif" font-size="14.00">updated_at :datetime(6)</text>
</g>
<!-- Lesson&#45;&gt;Test -->
<g id="edge10" class="edge">
<title>Lesson&#45;&gt;Test</title>
<path fill="none" stroke="#c2c338" d="M873.68,-871.91C879.34,-862.86 884.4,-853.51 888.5,-844 976.5,-640.14 973.96,-563.34 928.5,-346 926.08,-334.45 922.2,-322.6 917.74,-311.33"/>
<polygon fill="#c2c338" stroke="#c2c338" points="873.55,-872.11 864.31,-878.02 870.82,-876.29 868.08,-880.48 868.08,-880.48 868.08,-880.48 870.82,-876.29 871.85,-882.94 873.55,-872.11 873.55,-872.11"/>
<polygon fill="#c2c338" stroke="#c2c338" points="917.71,-311.26 918.04,-300.3 915.8,-306.64 913.88,-302.02 913.88,-302.02 913.88,-302.02 915.8,-306.64 909.73,-303.74 917.71,-311.26 917.71,-311.26"/>
</g>
<!-- Presence&#45;&gt;Student -->
<g id="edge12" class="edge">
<title>Presence&#45;&gt;Student</title>
<path fill="none" stroke="#ef7b48" d="M785.93,-711.92C785.96,-706.6 785.99,-701.22 786.03,-695.87"/>
<polygon fill="#ef7b48" stroke="#ef7b48" points="785.93,-712.05 781.37,-722.02 785.9,-717.05 785.87,-722.05 785.87,-722.05 785.87,-722.05 785.9,-717.05 790.37,-722.07 785.93,-712.05 785.93,-712.05"/>
<polygon fill="#ef7b48" stroke="#ef7b48" points="786.03,-695.62 790.59,-685.65 786.06,-690.62 786.09,-685.62 786.09,-685.62 786.09,-685.62 786.06,-690.62 781.59,-685.6 786.03,-695.62 786.03,-695.62"/>
</g>
<!-- Student&#45;&gt;StudentGrade -->
<g id="edge14" class="edge">
<title>Student&#45;&gt;StudentGrade</title>
<path fill="none" stroke="#50cf77" d="M802.65,-539.5C803.8,-533.99 804.97,-528.4 806.14,-522.82"/>
<polygon fill="#50cf77" stroke="#50cf77" points="802.63,-539.56 796.18,-548.43 801.61,-544.46 800.58,-549.35 800.58,-549.35 800.58,-549.35 801.61,-544.46 804.98,-550.27 802.63,-539.56 802.63,-539.56"/>
<polygon fill="#50cf77" stroke="#50cf77" points="806.19,-522.58 812.65,-513.72 807.22,-517.69 808.25,-512.79 808.25,-512.79 808.25,-512.79 807.22,-517.69 803.84,-511.87 806.19,-522.58 806.19,-522.58"/>
</g>
<!-- User -->
<g id="node14" class="node">
<title>User</title>
<path fill="none" stroke="black" d="M554.5,-0.5C554.5,-0.5 730.5,-0.5 730.5,-0.5 736.5,-0.5 742.5,-6.5 742.5,-12.5 742.5,-12.5 742.5,-139.5 742.5,-139.5 742.5,-145.5 736.5,-151.5 730.5,-151.5 730.5,-151.5 554.5,-151.5 554.5,-151.5 548.5,-151.5 542.5,-145.5 542.5,-139.5 542.5,-139.5 542.5,-12.5 542.5,-12.5 542.5,-6.5 548.5,-0.5 554.5,-0.5"/>
<text text-anchor="middle" x="642.5" y="-136.3" font-family="Times,serif" font-size="14.00">User</text>
<polyline fill="none" stroke="black" points="542.5,-128.5 742.5,-128.5 "/>
<text text-anchor="start" x="550.5" y="-113.3" font-family="Times,serif" font-size="14.00">id :integer</text>
<text text-anchor="start" x="550.5" y="-98.3" font-family="Times,serif" font-size="14.00">login :varchar</text>
<text text-anchor="start" x="550.5" y="-83.3" font-family="Times,serif" font-size="14.00">password :varchar</text>
<text text-anchor="start" x="550.5" y="-68.3" font-family="Times,serif" font-size="14.00">email :varchar</text>
<text text-anchor="start" x="550.5" y="-53.3" font-family="Times,serif" font-size="14.00">created_at :datetime(6)</text>
<text text-anchor="start" x="550.5" y="-38.3" font-family="Times,serif" font-size="14.00">updated_at :datetime(6)</text>
<text text-anchor="start" x="550.5" y="-23.3" font-family="Times,serif" font-size="14.00">password_digest :varchar</text>
<text text-anchor="start" x="550.5" y="-8.3" font-family="Times,serif" font-size="14.00">token :varchar</text>
</g>
<!-- Student&#45;&gt;User -->
<g id="edge13" class="edge">
<title>Student&#45;&gt;User</title>
<path fill="none" stroke="#412cf3" d="M734.45,-540.42C729.83,-531.45 725.7,-522.2 722.5,-513 674.67,-375.66 718.94,-329.29 684.5,-188 682.37,-179.25 679.74,-170.26 676.85,-161.35"/>
<polygon fill="#412cf3" stroke="#412cf3" points="734.48,-540.49 735.24,-551.43 736.84,-544.89 739.21,-549.3 739.21,-549.3 739.21,-549.3 736.84,-544.89 743.17,-547.17 734.48,-540.49 734.48,-540.49"/>
<polygon fill="#412cf3" stroke="#412cf3" points="676.8,-161.22 677.88,-150.31 675.21,-156.49 673.62,-151.75 673.62,-151.75 673.62,-151.75 675.21,-156.49 669.35,-153.18 676.8,-161.22 676.8,-161.22"/>
</g>
<!-- StudentGrade&#45;&gt;Teacher -->
<g id="edge15" class="edge">
<title>StudentGrade&#45;&gt;Teacher</title>
<path fill="none" stroke="#2fe517" d="M722.93,-353.46C705.7,-340.86 687.95,-327.87 671.09,-315.54"/>
<polygon fill="#2fe517" stroke="#2fe517" points="723.09,-353.58 728.51,-363.12 727.13,-356.54 731.16,-359.49 731.16,-359.49 731.16,-359.49 727.13,-356.54 733.82,-355.86 723.09,-353.58 723.09,-353.58"/>
<polygon fill="#2fe517" stroke="#2fe517" points="670.96,-315.44 665.54,-305.91 666.92,-312.49 662.89,-309.54 662.89,-309.54 662.89,-309.54 666.92,-312.49 660.23,-313.17 670.96,-315.44 670.96,-315.44"/>
</g>
<!-- StudentGrade&#45;&gt;Test -->
<g id="edge16" class="edge">
<title>StudentGrade&#45;&gt;Test</title>
<path fill="none" stroke="#e23825" d="M856.84,-336.79C859.73,-328.35 862.6,-319.94 865.36,-311.86"/>
<polygon fill="#e23825" stroke="#e23825" points="856.82,-336.84 849.33,-344.85 855.21,-341.57 853.59,-346.3 853.59,-346.3 853.59,-346.3 855.21,-341.57 857.85,-347.76 856.82,-336.84 856.82,-336.84"/>
<polygon fill="#e23825" stroke="#e23825" points="865.43,-311.66 872.92,-303.65 867.05,-306.93 868.66,-302.19 868.66,-302.19 868.66,-302.19 867.05,-306.93 864.41,-300.74 865.43,-311.66 865.43,-311.66"/>
</g>
<!-- Teacher&#45;&gt;User -->
<g id="edge17" class="edge">
<title>Teacher&#45;&gt;User</title>
<path fill="none" stroke="#11236c" d="M606.25,-178.62C608.29,-172.9 610.37,-167.08 612.44,-161.27"/>
<polygon fill="#11236c" stroke="#11236c" points="606.19,-178.77 598.6,-186.68 604.51,-183.48 602.83,-188.19 602.83,-188.19 602.83,-188.19 604.51,-183.48 607.07,-189.7 606.19,-178.77 606.19,-178.77"/>
<polygon fill="#11236c" stroke="#11236c" points="612.56,-160.93 620.16,-153.02 614.24,-156.22 615.92,-151.51 615.92,-151.51 615.92,-151.51 614.24,-156.22 611.68,-150 612.56,-160.93 612.56,-160.93"/>
</g>
</g>
</svg>
