<?xml version="1.0" encoding="UTF-8" standalone="no"?>
<!DOCTYPE svg PUBLIC "-//W3C//DTD SVG 1.1//EN"
 "http://www.w3.org/Graphics/SVG/1.1/DTD/svg11.dtd">
<!-- Generated by graphviz version 2.43.0 (0)
 -->
<!-- Title: models_diagram Pages: 1 -->
<svg width="1026pt" height="518pt"
 viewBox="0.00 0.00 1026.04 518.00" xmlns="http://www.w3.org/2000/svg" xmlns:xlink="http://www.w3.org/1999/xlink">
<g id="graph0" class="graph" transform="scale(1 1) rotate(0) translate(4 514)">
<title>models_diagram</title>
<polygon fill="transparent" stroke="transparent" points="-4,4 -4,-514 1022.04,-514 1022.04,4 -4,4"/>
<!-- _diagram_info -->
<g id="node1" class="node">
<title>_diagram_info</title>
<text text-anchor="start" x="8" y="-495.6" font-family="Times,serif" font-size="13.00">Models diagram</text>
<text text-anchor="start" x="8" y="-481.6" font-family="Times,serif" font-size="13.00">Date: Jun 13 2022 &#45; 21:50</text>
<text text-anchor="start" x="8" y="-467.6" font-family="Times,serif" font-size="13.00">Migration version: 20220605150413</text>
<text text-anchor="start" x="8" y="-453.6" font-family="Times,serif" font-size="13.00">Generated by RailRoady 1.6.0</text>
<text text-anchor="start" x="8" y="-439.6" font-family="Times,serif" font-size="13.00">http://railroady.prestonlee.com</text>
</g>
<!-- Animal -->
<g id="node2" class="node">
<title>Animal</title>
<ellipse fill="none" stroke="black" cx="319.5" cy="-471" rx="42.79" ry="18"/>
<text text-anchor="middle" x="319.5" y="-467.3" font-family="Times,serif" font-size="14.00">Animal</text>
</g>
<!-- AnimalType -->
<g id="node3" class="node">
<title>AnimalType</title>
<ellipse fill="none" stroke="black" cx="319.5" cy="-378" rx="65.79" ry="18"/>
<text text-anchor="middle" x="319.5" y="-374.3" font-family="Times,serif" font-size="14.00">AnimalType</text>
</g>
<!-- Animal&#45;&gt;AnimalType -->
<g id="edge1" class="edge">
<title>Animal&#45;&gt;AnimalType</title>
<path fill="none" stroke="#560f24" d="M319.5,-442.55C319.5,-431.08 319.5,-417.79 319.5,-406.34"/>
<polygon fill="#560f24" stroke="#560f24" points="319.5,-442.88 315,-452.88 319.5,-447.88 319.5,-452.88 319.5,-452.88 319.5,-452.88 319.5,-447.88 324,-452.88 319.5,-442.88 319.5,-442.88"/>
<polygon fill="#560f24" stroke="#560f24" points="319.5,-406.04 324,-396.04 319.5,-401.04 319.5,-396.04 319.5,-396.04 319.5,-396.04 319.5,-401.04 315,-396.04 319.5,-406.04 319.5,-406.04"/>
</g>
<!-- Lesson -->
<g id="node8" class="node">
<title>Lesson</title>
<ellipse fill="none" stroke="black" cx="582.5" cy="-378" rx="42.79" ry="18"/>
<text text-anchor="middle" x="582.5" y="-374.3" font-family="Times,serif" font-size="14.00">Lesson</text>
</g>
<!-- Animal&#45;&gt;Lesson -->
<g id="edge2" class="edge">
<title>Animal&#45;&gt;Lesson</title>
<path fill="none" stroke="#f9769c" d="M345.1,-448.29C353.15,-442.31 362.33,-436.3 371.5,-432 423.53,-407.6 488.24,-393.48 532.19,-386.04"/>
<polygon fill="#f9769c" stroke="#f9769c" points="345.08,-448.3 334.42,-450.87 341.13,-451.36 337.18,-454.43 337.18,-454.43 337.18,-454.43 341.13,-451.36 339.93,-457.98 345.08,-448.3 345.08,-448.3"/>
<polygon fill="#f9769c" stroke="#f9769c" points="532.19,-386.04 542.79,-388.86 537.13,-385.23 542.06,-384.42 542.06,-384.42 542.06,-384.42 537.13,-385.23 541.33,-379.98 532.19,-386.04 532.19,-386.04"/>
</g>
<!-- ApplicationRecord -->
<g id="node4" class="node">
<title>ApplicationRecord</title>
<ellipse fill="none" stroke="black" cx="922.5" cy="-471" rx="95.58" ry="18"/>
<text text-anchor="middle" x="922.5" y="-467.3" font-family="Times,serif" font-size="14.00">ApplicationRecord</text>
</g>
<!-- ClassOfStudent -->
<g id="node5" class="node">
<title>ClassOfStudent</title>
<ellipse fill="none" stroke="black" cx="463.5" cy="-471" rx="83.39" ry="18"/>
<text text-anchor="middle" x="463.5" y="-467.3" font-family="Times,serif" font-size="14.00">ClassOfStudent</text>
</g>
<!-- ClassOfStudent&#45;&gt;Lesson -->
<g id="edge4" class="edge">
<title>ClassOfStudent&#45;&gt;Lesson</title>
<path fill="none" stroke="#3db1f4" d="M493.27,-447.23C512.09,-432.84 536.24,-414.38 554.67,-400.28"/>
<polygon fill="#3db1f4" stroke="#3db1f4" points="492.99,-447.45 482.32,-449.95 489.02,-450.48 485.05,-453.52 485.05,-453.52 485.05,-453.52 489.02,-450.48 487.78,-457.1 492.99,-447.45 492.99,-447.45"/>
<polygon fill="#3db1f4" stroke="#3db1f4" points="554.75,-400.22 565.43,-397.72 558.72,-397.18 562.69,-394.15 562.69,-394.15 562.69,-394.15 558.72,-397.18 559.96,-390.57 554.75,-400.22 554.75,-400.22"/>
</g>
<!-- Student -->
<g id="node10" class="node">
<title>Student</title>
<ellipse fill="none" stroke="black" cx="580.5" cy="-234" rx="48.19" ry="18"/>
<text text-anchor="middle" x="580.5" y="-230.3" font-family="Times,serif" font-size="14.00">Student</text>
</g>
<!-- ClassOfStudent&#45;&gt;Student -->
<g id="edge5" class="edge">
<title>ClassOfStudent&#45;&gt;Student</title>
<path fill="none" stroke="#8ffa32" d="M467.32,-442.76C473.56,-405.37 488.6,-337.18 520.5,-288 528.27,-276.01 539.48,-265.11 550.11,-256.35"/>
<polygon fill="#8ffa32" stroke="#8ffa32" points="467.28,-443.01 461.28,-452.19 466.5,-447.95 465.72,-452.89 465.72,-452.89 465.72,-452.89 466.5,-447.95 470.17,-453.59 467.28,-443.01 467.28,-443.01"/>
<polygon fill="#8ffa32" stroke="#8ffa32" points="550.2,-256.27 560.84,-253.62 554.13,-253.18 558.05,-250.08 558.05,-250.08 558.05,-250.08 554.13,-253.18 555.27,-246.55 550.2,-256.27 550.2,-256.27"/>
</g>
<!-- Teacher -->
<g id="node12" class="node">
<title>Teacher</title>
<ellipse fill="none" stroke="black" cx="464.5" cy="-90" rx="47.39" ry="18"/>
<text text-anchor="middle" x="464.5" y="-86.3" font-family="Times,serif" font-size="14.00">Teacher</text>
</g>
<!-- ClassOfStudent&#45;&gt;Teacher -->
<g id="edge3" class="edge">
<title>ClassOfStudent&#45;&gt;Teacher</title>
<path fill="none" stroke="#162e18" d="M453.26,-443.19C442.01,-411.24 425.5,-356.03 425.5,-307 425.5,-307 425.5,-307 425.5,-233 425.5,-191.56 441.14,-145.67 452.61,-117.58"/>
<polygon fill="#162e18" stroke="#162e18" points="453.3,-443.3 452.47,-454.23 455.01,-448 456.71,-452.7 456.71,-452.7 456.71,-452.7 455.01,-448 460.94,-451.17 453.3,-443.3 453.3,-443.3"/>
<polygon fill="#162e18" stroke="#162e18" points="452.73,-117.29 460.76,-109.82 454.67,-112.68 456.61,-108.07 456.61,-108.07 456.61,-108.07 454.67,-112.68 452.46,-106.33 452.73,-117.29 452.73,-117.29"/>
</g>
<!-- Classroom -->
<g id="node6" class="node">
<title>Classroom</title>
<ellipse fill="none" stroke="black" cx="624.5" cy="-471" rx="59.59" ry="18"/>
<text text-anchor="middle" x="624.5" y="-467.3" font-family="Times,serif" font-size="14.00">Classroom</text>
</g>
<!-- Classroom&#45;&gt;Lesson -->
<g id="edge6" class="edge">
<title>Classroom&#45;&gt;Lesson</title>
<path fill="none" stroke="#e58226" d="M612.41,-443.8C606.77,-431.59 600.08,-417.09 594.46,-404.92"/>
<polygon fill="#e58226" stroke="#e58226" points="612.41,-443.8 612.51,-454.77 614.5,-448.34 616.6,-452.88 616.6,-452.88 616.6,-452.88 614.5,-448.34 620.69,-451 612.41,-443.8 612.41,-443.8"/>
<polygon fill="#e58226" stroke="#e58226" points="594.41,-404.81 594.31,-393.85 592.32,-400.27 590.22,-395.73 590.22,-395.73 590.22,-395.73 592.32,-400.27 586.14,-397.62 594.41,-404.81 594.41,-404.81"/>
</g>
<!-- Course -->
<g id="node7" class="node">
<title>Course</title>
<ellipse fill="none" stroke="black" cx="765.5" cy="-471" rx="43.59" ry="18"/>
<text text-anchor="middle" x="765.5" y="-467.3" font-family="Times,serif" font-size="14.00">Course</text>
</g>
<!-- Course&#45;&gt;Lesson -->
<g id="edge8" class="edge">
<title>Course&#45;&gt;Lesson</title>
<path fill="none" stroke="#ee936b" d="M730.88,-451.37C719.07,-445.11 705.76,-438.16 693.5,-432 669.07,-419.72 641.3,-406.47 619.66,-396.28"/>
<polygon fill="#ee936b" stroke="#ee936b" points="731.14,-451.51 737.86,-460.18 735.56,-453.86 739.97,-456.21 739.97,-456.21 739.97,-456.21 735.56,-453.86 742.09,-452.23 731.14,-451.51 731.14,-451.51"/>
<polygon fill="#ee936b" stroke="#ee936b" points="619.53,-396.23 612.39,-387.9 615,-394.1 610.48,-391.98 610.48,-391.98 610.48,-391.98 615,-394.1 608.57,-396.05 619.53,-396.23 619.53,-396.23"/>
</g>
<!-- StudentGrade -->
<g id="node11" class="node">
<title>StudentGrade</title>
<ellipse fill="none" stroke="black" cx="643.5" cy="-162" rx="76.09" ry="18"/>
<text text-anchor="middle" x="643.5" y="-158.3" font-family="Times,serif" font-size="14.00">StudentGrade</text>
</g>
<!-- Course&#45;&gt;StudentGrade -->
<g id="edge7" class="edge">
<title>Course&#45;&gt;StudentGrade</title>
<path fill="none" stroke="#a48a81" d="M755.04,-443.69C732.06,-385.86 677.37,-248.24 654.18,-189.89"/>
<polygon fill="#a48a81" stroke="#a48a81" points="755.07,-443.76 754.59,-454.72 756.92,-448.41 758.77,-453.06 758.77,-453.06 758.77,-453.06 756.92,-448.41 762.95,-451.4 755.07,-443.76 755.07,-443.76"/>
<polygon fill="#a48a81" stroke="#a48a81" points="654.06,-189.56 654.54,-178.61 652.21,-184.92 650.36,-180.27 650.36,-180.27 650.36,-180.27 652.21,-184.92 646.18,-181.93 654.06,-189.56 654.06,-189.56"/>
</g>
<!-- Presence -->
<g id="node9" class="node">
<title>Presence</title>
<ellipse fill="none" stroke="black" cx="582.5" cy="-306" rx="53.09" ry="18"/>
<text text-anchor="middle" x="582.5" y="-302.3" font-family="Times,serif" font-size="14.00">Presence</text>
</g>
<!-- Lesson&#45;&gt;Presence -->
<g id="edge11" class="edge">
<title>Lesson&#45;&gt;Presence</title>
<path fill="none" stroke="#2fb516" d="M582.5,-349.67C582.5,-344.69 582.5,-339.49 582.5,-334.51"/>
<polygon fill="#2fb516" stroke="#2fb516" points="582.5,-349.7 578,-359.7 582.5,-354.7 582.5,-359.7 582.5,-359.7 582.5,-359.7 582.5,-354.7 587,-359.7 582.5,-349.7 582.5,-349.7"/>
<polygon fill="#2fb516" stroke="#2fb516" points="582.5,-334.1 587,-324.1 582.5,-329.1 582.5,-324.1 582.5,-324.1 582.5,-324.1 582.5,-329.1 578,-324.1 582.5,-334.1 582.5,-334.1"/>
</g>
<!-- Lesson&#45;&gt;Teacher -->
<g id="edge9" class="edge">
<title>Lesson&#45;&gt;Teacher</title>
<path fill="none" stroke="#d214dc" d="M551.48,-356.77C540.19,-347.96 528.3,-336.73 520.5,-324 479.86,-257.66 468.71,-163.91 465.65,-118.19"/>
<polygon fill="#d214dc" stroke="#d214dc" points="551.49,-356.78 556.84,-366.36 555.51,-359.76 559.52,-362.75 559.52,-362.75 559.52,-362.75 555.51,-359.76 562.2,-359.13 551.49,-356.78 551.49,-356.78"/>
<polygon fill="#d214dc" stroke="#d214dc" points="465.65,-118.15 469.56,-107.9 465.36,-113.15 465.06,-108.16 465.06,-108.16 465.06,-108.16 465.36,-113.15 460.57,-108.43 465.65,-118.15 465.65,-118.15"/>
</g>
<!-- Test -->
<g id="node13" class="node">
<title>Test</title>
<ellipse fill="none" stroke="black" cx="695.5" cy="-90" rx="30.59" ry="18"/>
<text text-anchor="middle" x="695.5" y="-86.3" font-family="Times,serif" font-size="14.00">Test</text>
</g>
<!-- Lesson&#45;&gt;Test -->
<g id="edge10" class="edge">
<title>Lesson&#45;&gt;Test</title>
<path fill="none" stroke="#0c0dad" d="M611.18,-355.86C622.36,-346.8 634.79,-335.63 644.5,-324 691.99,-267.13 709.16,-251.53 728.5,-180 732.68,-164.55 732.9,-159.38 728.5,-144 725.58,-133.79 720.06,-123.63 714.36,-114.98"/>
<polygon fill="#0c0dad" stroke="#0c0dad" points="611.17,-355.87 600.54,-358.53 607.25,-358.97 603.32,-362.06 603.32,-362.06 603.32,-362.06 607.25,-358.97 606.11,-365.6 611.17,-355.87 611.17,-355.87"/>
<polygon fill="#0c0dad" stroke="#0c0dad" points="714.21,-114.76 712.14,-103.99 711.33,-110.67 708.46,-106.58 708.46,-106.58 708.46,-106.58 711.33,-110.67 704.78,-109.16 714.21,-114.76 714.21,-114.76"/>
</g>
<!-- Presence&#45;&gt;Student -->
<g id="edge12" class="edge">
<title>Presence&#45;&gt;Student</title>
<path fill="none" stroke="#5f12ec" d="M581.72,-277.67C581.57,-272.55 581.42,-267.21 581.27,-262.1"/>
<polygon fill="#5f12ec" stroke="#5f12ec" points="581.72,-277.7 577.51,-287.83 581.86,-282.7 582.01,-287.7 582.01,-287.7 582.01,-287.7 581.86,-282.7 586.5,-287.57 581.72,-277.7 581.72,-277.7"/>
<polygon fill="#5f12ec" stroke="#5f12ec" points="581.27,-262.1 585.49,-251.98 581.13,-257.1 580.99,-252.1 580.99,-252.1 580.99,-252.1 581.13,-257.1 576.49,-252.23 581.27,-262.1 581.27,-262.1"/>
</g>
<!-- Student&#45;&gt;StudentGrade -->
<g id="edge14" class="edge">
<title>Student&#45;&gt;StudentGrade</title>
<path fill="none" stroke="#b32f29" d="M601.99,-209.12C608.15,-202.28 614.88,-194.8 621.1,-187.89"/>
<polygon fill="#b32f29" stroke="#b32f29" points="601.8,-209.33 591.77,-213.75 598.46,-213.05 595.11,-216.76 595.11,-216.76 595.11,-216.76 598.46,-213.05 598.46,-219.78 601.8,-209.33 601.8,-209.33"/>
<polygon fill="#b32f29" stroke="#b32f29" points="621.4,-187.56 631.43,-183.13 624.74,-183.84 628.09,-180.12 628.09,-180.12 628.09,-180.12 624.74,-183.84 624.74,-177.11 621.4,-187.56 621.4,-187.56"/>
</g>
<!-- User -->
<g id="node14" class="node">
<title>User</title>
<ellipse fill="none" stroke="black" cx="501.5" cy="-18" rx="33.29" ry="18"/>
<text text-anchor="middle" x="501.5" y="-14.3" font-family="Times,serif" font-size="14.00">User</text>
</g>
<!-- Student&#45;&gt;User -->
<g id="edge13" class="edge">
<title>Student&#45;&gt;User</title>
<path fill="none" stroke="#7d759f" d="M569.18,-206.54C565.66,-198.1 561.83,-188.69 558.5,-180 540.29,-132.48 537.53,-119.95 520.5,-72 517.48,-63.49 514.16,-54.21 511.16,-45.84"/>
<polygon fill="#7d759f" stroke="#7d759f" points="569.25,-206.69 568.98,-217.66 571.19,-211.3 573.13,-215.91 573.13,-215.91 573.13,-215.91 571.19,-211.3 577.27,-214.16 569.25,-206.69 569.25,-206.69"/>
<polygon fill="#7d759f" stroke="#7d759f" points="511.07,-45.59 511.92,-34.66 509.38,-40.88 507.69,-36.18 507.69,-36.18 507.69,-36.18 509.38,-40.88 503.45,-37.7 511.07,-45.59 511.07,-45.59"/>
</g>
<!-- StudentGrade&#45;&gt;Teacher -->
<g id="edge15" class="edge">
<title>StudentGrade&#45;&gt;Teacher</title>
<path fill="none" stroke="#f55312" d="M596.49,-142.62C568.36,-131.61 532.92,-117.76 505.86,-107.17"/>
<polygon fill="#f55312" stroke="#f55312" points="596.66,-142.68 604.34,-150.52 601.32,-144.5 605.98,-146.33 605.98,-146.33 605.98,-146.33 601.32,-144.5 607.61,-142.13 596.66,-142.68 596.66,-142.68"/>
<polygon fill="#f55312" stroke="#f55312" points="505.6,-107.07 497.93,-99.24 500.95,-105.25 496.29,-103.43 496.29,-103.43 496.29,-103.43 500.95,-105.25 494.65,-107.62 505.6,-107.07 505.6,-107.07"/>
</g>
<!-- StudentGrade&#45;&gt;Test -->
<g id="edge16" class="edge">
<title>StudentGrade&#45;&gt;Test</title>
<path fill="none" stroke="#1495df" d="M662.14,-135.9C667.21,-129.09 672.68,-121.72 677.69,-114.97"/>
<polygon fill="#1495df" stroke="#1495df" points="662.05,-136.03 652.48,-141.37 659.07,-140.04 656.09,-144.05 656.09,-144.05 656.09,-144.05 659.07,-140.04 659.7,-146.74 662.05,-136.03 662.05,-136.03"/>
<polygon fill="#1495df" stroke="#1495df" points="677.78,-114.86 687.35,-109.51 680.76,-110.84 683.74,-106.83 683.74,-106.83 683.74,-106.83 680.76,-110.84 680.13,-104.15 677.78,-114.86 677.78,-114.86"/>
</g>
<!-- Teacher&#45;&gt;User -->
<g id="edge17" class="edge">
<title>Teacher&#45;&gt;User</title>
<path fill="none" stroke="#91ef73" d="M478.24,-63C481.4,-57.03 484.75,-50.69 487.9,-44.73"/>
<polygon fill="#91ef73" stroke="#91ef73" points="478.13,-63.21 469.48,-69.95 475.79,-67.63 473.46,-72.05 473.46,-72.05 473.46,-72.05 475.79,-67.63 477.44,-74.16 478.13,-63.21 478.13,-63.21"/>
<polygon fill="#91ef73" stroke="#91ef73" points="487.95,-44.63 496.6,-37.89 490.29,-40.21 492.63,-35.79 492.63,-35.79 492.63,-35.79 490.29,-40.21 488.65,-33.69 487.95,-44.63 487.95,-44.63"/>
</g>
</g>
</svg>
